<?xml version="1.0" encoding="UTF-8"?>
<svg id="Capa_1" xmlns="http://www.w3.org/2000/svg" version="1.1" viewBox="0 0 800 800">
  <!-- Generator: Adobe Illustrator 29.3.1, SVG Export Plug-In . SVG Version: 2.1.0 Build 151)  -->
  <defs>
    <style>
      .st0 {
        fill: #ededed;
      }
    </style>
  </defs>
  <path class="st0" d="M45.25,506.67c6.53,0,12.99-1.45,18.15-5.03,8.32-5.91,10.23-15.01,10.23-19.96,0-9.6-3.35-17.07-17.53-28.19l-3.38-2.68c-11.26-9.24-14.66-13.34-14.66-20.16,0-8.8,6.51-13.95,14.78-13.95,11.05,0,14.31,5.05,15.02,6.37.71,1.3,1.42,4.54,1.55,6.01.12.95.22,1.57.97,1.57.59,0,.83-.83.83-2.78,0-8.19.49-12.14.49-12.73s-.27-.84-1.22-.84-1.92-.13-4.18-.61c-3-.72-6.51-1.2-11.2-1.2-15.25,0-24.84,8.77-24.84,21.63,0,8.16,2.87,15.59,15.6,26.07l5.42,4.41c10.33,8.56,13.79,13.37,13.79,21.65,0,7.69-5.64,15.98-17.16,15.98-8.06,0-15.98-3.36-17.8-12.26-.35-1.66-.35-3.35-.35-4.44,0-.97-.12-1.33-.84-1.33-.59,0-.82.59-.97,1.92-.11,1.93-.59,6.73-.59,12.74,0,3.24.1,3.7,1.82,4.54,4.88,2.41,10.43,3.26,16.05,3.26"/>
  <path class="st0" d="M108.42,459.47c0,21.61,13.68,47.2,46.61,47.2,28.94,0,47.93-22.23,47.93-49.14s-20.19-45.04-47.2-45.04c-33.16,0-47.34,27.5-47.34,46.98M119.85,456.1c0-26.29,15.01-39.54,35.07-39.54,18.97,0,36.52,15.52,36.52,44.34,0,34.97-22.33,41.2-33.16,41.2-21.65,0-38.43-17.99-38.43-46"/>
  <path class="st0" d="M274.39,419.34l15.08.25c11.52.25,14.3,3.01,14.78,6.62l.12,1.32c.11,1.66.35,2.02.98,2.02.5,0,.87-.46.87-1.55,0-1.32.36-9.6.36-13.21,0-.73,0-1.45-.62-1.45-.49,0-1.59.25-3.42.59-1.9.24-4.67.59-8.51.59h-44.99c-1.46,0-6.01-.21-9.51-.59-3.22-.23-4.44-1.43-5.29-1.43-.46,0-.93,1.56-1.2,2.29-.23.95-2.63,11.29-2.63,12.47,0,.74.22,1.1.59,1.1.5,0,.84-.22,1.21-1.2.37-.84.74-1.68,2.03-3.72,1.94-2.9,4.83-3.74,12.24-3.85l17.82-.25v50.81c0,11.52,0,21.02-.62,26.07-.47,3.48-1.07,6.13-3.5,6.62-1.09.22-2.52.44-3.58.44-.72,0-.98.4-.98.75,0,.71.59.94,1.93.94,3.61,0,11.15-.36,11.78-.36s8.14.36,14.74.36c1.3,0,1.92-.36,1.92-.94,0-.34-.25-.75-.96-.75-1.07,0-3.72-.23-5.42-.44-3.58-.5-4.27-3.14-4.64-6.62-.59-5.05-.59-14.55-.59-26.07v-50.81h.01Z"/>
  <path class="st0" d="M374.2,419.34l15.07.25c11.55.25,14.27,3.01,14.78,6.62l.11,1.32c.13,1.66.39,2.02.98,2.02.51,0,.87-.46.87-1.55,0-1.32.35-9.6.35-13.21,0-.73,0-1.45-.59-1.45-.53,0-1.62.25-3.42.59-1.92.24-4.69.59-8.51.59h-45.01c-1.43,0-6-.21-9.51-.59-3.23-.23-4.44-1.43-5.27-1.43-.5,0-.93,1.56-1.19,2.29-.24.95-2.64,11.29-2.64,12.47,0,.74.22,1.1.58,1.1.5,0,.87-.22,1.21-1.2.36-.84.74-1.68,2.05-3.72,1.92-2.9,4.81-3.74,12.23-3.85l17.79-.25v50.81c0,11.52,0,21.02-.56,26.07-.53,3.48-1.13,6.13-3.52,6.62-1.09.22-2.5.44-3.57.44-.75,0-.99.4-.99.75,0,.71.63.94,1.93.94,3.6,0,11.15-.36,11.77-.36.58,0,8.16.36,14.77.36,1.29,0,1.92-.36,1.92-.94,0-.34-.26-.75-.98-.75-1.07,0-3.71-.23-5.37-.44-3.62-.5-4.31-3.14-4.71-6.62-.56-5.05-.56-14.55-.56-26.07v-50.81h0Z"/>
  <path class="st0" d="M450.45,491.77c-2.16,6-4.58,10.58-10.09,11.3-.98.13-2.65.22-3.53.22-.56,0-1.06.26-1.06.75,0,.72.73.94,2.28.94,5.67,0,12.28-.35,13.6-.35s6.48.35,9.36.35c1.08,0,1.81-.23,1.81-.94,0-.49-.39-.75-1.22-.75h-1.17c-2.08,0-4.55-1.06-4.55-3.45,0-2.17.56-5.05,1.61-8.07l7.27-21.24c.21-.61.58-.99,1.18-.99h25.83c.58,0,.84.27,1.08.73l11.17,29.57c.73,1.89,0,3.01-.7,3.23-.49.13-.87.35-.87.84,0,.72,1.35.72,3.64.84,8.29.23,17.03.23,18.85.23,1.32,0,2.4-.23,2.4-.94,0-.63-.47-.75-1.21-.75-1.19,0-3.01-.09-4.8-.72-2.52-.72-6-2.61-10.36-13.32-7.3-18.26-26.15-67.87-27.99-72.42-1.39-3.71-1.89-4.32-2.66-4.32-.66,0-1.14.71-2.58,4.67l-27.26,74.59h-.03ZM467.25,465.22c-.36,0-.6-.22-.36-.84l10.56-32.44c.63-1.79,1.22-1.79,1.81,0l11.41,32.44c.12.48.12.84-.48.84h-22.94Z"/>
  <path class="st0" d="M563.02,431.12c3.84,4.3,17.39,19.45,31.3,34.47,12.7,13.68,29.99,31.35,31.3,32.56,6.38,6.35,7.83,7.67,8.82,7.67.84,0,1.05-.6,1.05-8.52l.26-70.4c0-7.22.51-9.83,4.45-10.7,1.47-.33,2.34-.33,2.91-.33.83,0,1.3-.36,1.3-.86,0-.71-.81-.84-2.15-.84-4.91,0-8.9.35-10.24.35s-7.12-.35-12.49-.35c-1.45,0-2.39.13-2.39.84,0,.5.11.86.95.86.94,0,3.7.09,5.88.59,3.69.96,4.56,3.6,4.69,11.42l1.33,61.01c-3.84-3.96-16.94-18.62-28.81-31.36-18.45-19.81-36.33-39.15-38.12-41.17-1.22-1.22-3.25-3.86-4.25-3.86s-1.3,1.33-1.3,6.01l-.12,68.81c0,10.96-.64,14.41-3.61,15.27-1.82.61-3.99.7-4.93.7-.59,0-.96.26-.96.75,0,.83.71.94,1.9.94,5.41,0,10.51-.36,11.56-.36s5.92.36,12.73.36c1.45,0,2.19-.23,2.19-.94,0-.49-.36-.75-.98-.75-1.09,0-3.72-.1-5.98-.7-3.24-.94-4.46-4.08-4.67-13.94l-1.58-57.52h-.04Z"/>
  <path class="st0" d="M678.09,459.47c0,21.61,13.7,47.2,46.61,47.2,28.96,0,47.93-22.23,47.93-49.14s-20.2-45.04-47.21-45.04c-33.15,0-47.33,27.5-47.33,46.98M689.5,456.1c0-26.29,15.04-39.54,35.09-39.54,18.98,0,36.5,15.52,36.5,44.34,0,34.97-22.34,41.2-33.17,41.2-21.61,0-38.43-17.99-38.43-46"/>
  <path class="st0" d="M31.45,350.98c0,11.53,0,21.03-.63,26.07-.48,3.49-1.09,6.13-3.48,6.63-1.07.22-2.53.44-3.61.44-.7,0-.96.37-.96.74,0,.72.6.94,1.93.94,1.79,0,4.56-.11,6.94-.23,2.52,0,4.59-.13,4.81-.13.48,0,3.85.13,7.35.35,3.48.12,7.31.36,8.65.36,20.52,0,30.61-13.31,30.61-26.17,0-14.07-11.88-22.57-20.75-25.35,5.63-5.89,11.27-11.79,11.27-21.61,0-6.02-4.34-18.05-24.05-18.05-5.51,0-10.21.35-13.08.35-.59,0-8.17-.35-13.55-.35-1.32,0-1.93.23-1.93.97,0,.49.46.73.97.73,1.08,0,3.14.09,4.07.33,3.96.87,4.91,2.78,5.18,6.84.25,3.85.25,7.21.25,25.96v21.18ZM41.04,300.31c0-.73.36-1.09,1.42-1.32,1.92-.5,4.47-.63,5.77-.63,11.78,0,16.22,10.71,16.22,20.67,0,4.94-1.79,9.26-4.32,12.15-2.51,2.87-4.21,3.14-10.93,3.14-4.45,0-6.59-.4-7.31-.51-.62-.24-.84-.46-.84-1.33v-32.17h0ZM41.04,338.37c0-.6.22-.84.72-.84,1.8,0,7.78,0,9.36.25,2.87.35,5.88.72,9.98,3.47,9.23,6.39,11.65,16.83,11.65,24.03,0,13.58-10.43,17.07-16.93,17.07-2.16,0-7.34-.23-10.58-1.8-3.75-1.81-3.75-3.49-4.1-9.37-.1-1.81-.1-16.7-.1-25.95v-6.85h0Z"/>
  <path class="st0" d="M140.51,340.31c0,21.61,13.7,47.2,46.61,47.2,28.95,0,47.91-22.23,47.91-49.14s-20.18-45.04-47.2-45.04c-33.15,0-47.32,27.5-47.32,46.98M151.91,336.94c0-26.29,15.04-39.54,35.11-39.54,18.93,0,36.49,15.52,36.49,44.33,0,34.97-22.36,41.2-33.14,41.2-21.63,0-38.46-17.99-38.46-46"/>
  <path class="st0" d="M304.36,350.99c0,11.52,0,21.02-.6,26.07-.48,3.49-1.07,6.13-3.49,6.63-1.07.22-2.52.45-3.59.45-.72,0-.97.37-.97.74,0,.72.61.94,1.93.94,1.81,0,4.54-.1,6.98-.23,2.5,0,4.54-.13,4.8-.13.58,0,4.66.36,9.96.73,5.16.36,11.52.72,16.72.72,20.41,0,31.19-8.4,36.35-13.8,6.76-7.07,12.99-18.75,12.99-33.85,0-14.3-5.64-24.29-11.65-30.53-14.3-14.76-36.26-13.71-48.17-13.71-7.21,0-14.78.35-16.2.35-.6,0-8.17-.35-13.6-.35-1.31,0-1.9.23-1.9.97,0,.48.48.72.93.72,1.11,0,3.13.1,4.09.34,3.99.86,4.95,2.77,5.18,6.84.24,3.85.24,7.21.24,25.97v21.13h0ZM314.45,327.93c0-9.25,0-21.52.13-25.59,0-1.32.37-1.93,1.43-2.42.97-.47,5.39-.84,7.83-.84,14.28,0,27.98,1.69,39.27,13.57,4.91,5.18,11.52,15.03,11.52,30.29,0,11.05-3.36,22.58-9.61,28.71-7.07,7.07-17.42,11.17-28.59,11.17-14.18,0-18.86-2.53-20.42-4.81-.97-1.32-1.18-6.12-1.3-9.13-.13-2.27-.26-13.32-.26-26.07v-14.89h0Z"/>
  <path class="st0" d="M454.8,350.99c0,11.53,0,21.03-.62,26.07-.46,3.49-1.07,6.13-3.49,6.63-1.05.22-2.5.44-3.58.44-.72,0-.98.37-.98.75,0,.72.62.94,1.94.94,1.8,0,4.55-.1,6.98-.22,2.51,0,4.55-.13,4.81-.13,1.76,0,4.63.13,9.34.36,4.68.11,11.28.38,20.28.38,4.68,0,5.68,0,6.51-3.13.56-2.52,1.53-10.69,1.53-11.64,0-.85,0-1.82-.68-1.82-.63,0-.85.47-1.09,1.82-.84,4.92-2.3,7.31-5.41,8.66-3.12,1.3-8.42,1.3-11.55,1.3-11.75,0-13.56-1.55-13.93-9.86-.13-2.5,0-16.43,0-20.54v-10.55c0-.48.24-.86.84-.86,2.08,0,13.94.21,17.19.6,4.67.46,5.77,2.52,6.24,4.2.49,1.56.49,2.75.49,3.99,0,.59.26,1.06.83,1.06.84,0,.84-1.32.84-2.3,0-.82.22-5.27.47-7.66.38-3.96.97-6.01.97-6.73s-.24-.97-.59-.97c-.47,0-.97.63-1.8,1.56-1.06,1.22-2.79,1.45-5.64,1.68-2.78.26-17.53.26-19.12.26-.56,0-.71-.35-.71-1.22v-33.15c0-.85.24-1.18.71-1.18,1.35,0,14.44.1,16.47.33,6.49.73,7.68,2.17,8.54,4.09.59,1.43.71,3.49.71,4.33,0,.96.22,1.56.97,1.56.48,0,.73-.72.82-1.31.27-1.43.48-6.75.62-7.94.37-3.38.97-4.79.97-5.63,0-.61-.13-1.1-.5-1.1-.6,0-1.08.49-1.66.62-.99.23-2.88.48-5.16.57-2.81.12-26.69.12-27.48.12-.27,0-2.3-.12-4.93-.21-2.65,0-5.9-.13-8.66-.13-1.3,0-1.94.23-1.94.97,0,.49.5.73.97.73,1.09,0,3.14.09,4.07.33,3.99.87,4.95,2.78,5.18,6.84.25,3.85.25,7.21.25,25.96v21.14h-.02Z"/>
  <path class="st0" d="M625.39,375.62c0,2.04-.85,3.36-2.4,4.21-3.12,1.79-9.38,2.53-13.68,2.53-11.09,0-22.01-3.62-31.47-12.87-4.22-4.06-12.75-16.34-12.75-33.28,0-14.03,4.91-24.99,11.89-30.5,9.12-7.21,18.12-7.92,25.69-7.92,15.52,0,25.23,5.14,28.25,9.73,1.79,2.87,2.39,6.24,2.53,7.91.1,1.11.21,1.81.83,1.81.84,0,1.07-.58,1.07-2.49,0-12.05.85-15.39.85-17.06,0-.48-.23-.97-1.45-1.1-2.99-.11-7.21-.59-9.75-1.22-2.26-.47-10.81-2.03-18.37-2.03-9.23,0-21.14.85-31.95,7.57-10.69,6.73-20.06,20.29-20.06,39.51,0,15.03,6.98,27.86,14.32,34.24,13.32,11.64,30.37,12.86,39.49,12.86,6.99,0,17.8-1.33,25.48-5.4,1.45-.84,1.58-1.11,1.58-6.49v-13.46c0-5.04,0-8.66.23-12.5.26-4.23,1.2-6.24,4.42-6.84,1.47-.24,2.19-.35,3.01-.35.52,0,.99-.24.99-.74,0-.7-.62-.93-1.94-.93-3.62,0-11.15.34-11.74.34-.63,0-8.19-.34-13.6-.34-1.32,0-1.9.23-1.9.93,0,.5.47.74.93.74,1.09,0,3.14.11,4.09.35,4.81,1.35,5.42,2.62,5.42,12.36v20.44h-.01Z"/>
  <path class="st0" d="M702.15,372.6c-2.17,6-4.57,10.58-10.1,11.3-.96.13-2.64.22-3.49.22-.6,0-1.07.26-1.07.75,0,.72.73.94,2.31.94,5.62,0,12.23-.35,13.54-.35s6.5.35,9.38.35c1.07,0,1.82-.22,1.82-.94,0-.49-.37-.75-1.21-.75h-1.22c-2.02,0-4.56-1.07-4.56-3.45,0-2.17.6-5.05,1.69-8.07l7.19-21.24c.21-.61.6-.98,1.23-.98h25.81c.59,0,.85.26,1.09.73l11.18,29.57c.69,1.89,0,3.01-.74,3.23-.49.13-.85.35-.85.84,0,.72,1.34.72,3.59.84,8.32.22,17.07.22,18.87.22,1.34,0,2.4-.22,2.4-.94,0-.62-.5-.75-1.19-.75-1.21,0-3.01-.1-4.83-.72-2.52-.72-6-2.61-10.3-13.32-7.33-18.26-26.19-67.86-27.96-72.42-1.43-3.71-1.95-4.33-2.69-4.33s-1.18.71-2.61,4.68l-27.29,74.59h0ZM718.99,346.06c-.37,0-.64-.22-.37-.84l10.57-32.44c.58-1.79,1.17-1.79,1.8,0l11.38,32.44c.13.48.13.84-.46.84h-22.92Z"/>
</svg>