<?xml version="1.0" encoding="UTF-8"?>
<svg id="Capa_1" xmlns="http://www.w3.org/2000/svg" version="1.1" viewBox="0 0 800 800">
  <!-- Generator: Adobe Illustrator 29.3.1, SVG Export Plug-In . SVG Version: 2.1.0 Build 151)  -->
  <defs>
    <style>
      .st0 {
        fill: #ededed;
      }
    </style>
  </defs>
  <path class="st0" d="M50.24,279.42h52.73c30.4.08,45.59,16.73,45.59,49.95v35.68c0,15.56-6.25,26.57-18.75,33.02,12.5,6.45,18.75,17.46,18.75,33.02v35.8c0,33.14-15.92,49.75-47.77,49.83h-50.55v-237.3ZM84.47,313.17v67.97h10.76c4.76,0,8.02-.32,9.8-.97,6.21-2.5,9.31-7.54,9.31-15.12v-35.68c0-10.8-4.96-16.21-14.88-16.21h-15,0ZM84.47,415v67.97h15c9.92,0,14.88-5.36,14.88-16.08v-35.8c0-7.58-3.1-12.58-9.31-15-1.77-.72-5.04-1.09-9.8-1.09h-10.77Z"/>
  <path class="st0" d="M176.38,279.42h49.83c30.4.08,45.59,16.73,45.59,49.95v35.68c0,20.88-8.99,34.63-26.97,41.24l38.46,110.42h-37.49l-30.84-104.37-4.35.6v103.77h-34.23v-237.28h0ZM210.61,313.17v67.97h7.86c4.76,0,8.02-.32,9.8-.97,6.21-2.5,9.31-7.54,9.31-15.12v-35.68c0-10.8-4.96-16.21-14.88-16.21h-12.09Z"/>
  <path class="st0" d="M399.76,470.63c0,33.22-16.41,49.87-49.22,49.95-32.73,0-49.1-16.65-49.1-49.95v-191.2h34.23v191.2c0,10.72,4.96,16.08,14.88,16.08s15-5.36,15-16.08v-191.2h34.23v191.2h-.02Z"/>
  <path class="st0" d="M518.64,279.42v33.74h-32.05v203.54h-34.23v-203.54h-32.05v-33.74h98.33Z"/>
  <path class="st0" d="M629.3,432.53l11.13,84.17h-34.59l-6.65-50.31h-34.95l-6.77,50.31h-34.47l11.13-83.81,24.19-153.47h46.92l24.07,153.11h0ZM594.71,432.53l-13.06-98.69-13.06,98.69h26.12Z"/>
  <path class="st0" d="M660.99,516.71v-237.28h34.23v203.54h54.54v33.74h-88.77,0Z"/>
</svg>