<?xml version="1.0" encoding="UTF-8"?>
<svg id="Capa_1" xmlns="http://www.w3.org/2000/svg" version="1.1" viewBox="0 0 800 800">
  <!-- Generator: Adobe Illustrator 29.3.1, SVG Export Plug-In . SVG Version: 2.1.0 Build 151)  -->
  <defs>
    <style>
      .st0 {
        fill: #ededed;
      }
    </style>
  </defs>
  <path class="st0" d="M114.41,452.07c-9.34,4.91-20.17,7.25-31.29,7.25-29.28,0-46.3-17.07-46.3-40.2,0-21.67,15.13-39.66,48.32-39.66,15.26,0,25.48,3.7,31.16,5.95-1.9,4.61-4.29,11.23-4.29,11.23-3.42-6.4-14.51-12.33-27.38-12.33-19.95,0-33.19,13.03-33.19,34.7,0,23.38,16.29,34.94,34.2,34.94,5.66,0,18.8-1.1,28.63-11.56,0,0,.37,5.5.12,9.69"/>
  <path class="st0" d="M156.21,436.52c0,10.23.25,21.46.25,21.46h-13.98s1.62-26.29,1.62-40.99c0-8.66-1.11-36.75-1.11-36.75h14.13s-1.14,19.99-.89,32.71c8.33.2,16.78.45,25.11.45,9.85,0,15.65-.12,23.35-.35.26-15.26-.64-32.81-.64-32.81h14.14s-1.4,37.18-1.4,53.94c0,9.1.76,23.79.76,23.79h-13.75s.88-18.43.88-21.23v-16.87c-8.44-.32-11.62-.32-24.23-.32s-14.63,0-24.23.21v16.73"/>
  <path class="st0" d="M361.34,406.87c.38,27.19,2.02,50.98,2.02,50.98h-10.22s1.64-24.9,1.64-36.59c0-4.51-.39-24.05-.39-28.09v-13.51h4.67l4.17,4.38c3.41,3.49,6.43,6.53,14.14,13.72,25.22,23.71,28,26.39,44.03,40.88v-4.14c0-28.66-1.67-54.84-1.67-54.84h10.36s-2.14,32.48-2.14,48.64c0,8.77.51,30.22.51,30.22h-4.4s-22.84-23.01-31.7-30.32c-2.12-1.79-4.28-3.71-6.41-5.62l-24.61-22.81v7.1"/>
  <path class="st0" d="M510.99,391.47c-8.82-5.95-19.56-5.95-29.67-5.95-6.03,0-7.03.11-11.09.47-.5,10.34-.64,21.79-.64,32.12,0,20.55,0,22.89.38,34.06,4.31.45,7.46.67,13.52.67,5.4,0,17.51,0,26.09-5.42,11.76-7.43,14.17-20.11,14.17-29.1,0-8.42-2.13-19.76-12.76-26.85M489.77,457.98h-33.53s1.51-19.12,1.51-44.93c0-16.73-.98-33.01-.98-33.01,0,0,13.71.33,20.67.33,22.55,0,34.73,0,46.42,8.33,10.99,7.71,13.87,18.52,13.87,28.3,0,28.42-22.7,40.99-47.97,40.99"/>
  <path class="st0" d="M611.6,454.86c19.91,0,34.07-12.97,34.07-35.96,0-5.84-1.13-14.93-5.55-21.56-6.83-10.23-19.56-13.27-28.15-13.27-16.8,0-33.68,10.12-33.68,35.5,0,21.87,13.86,35.29,33.31,35.29M660.05,418.32c0,23.45-18.68,41.33-48.7,41.33-27.51,0-47.45-15.05-47.45-39.99s17.81-40.43,48.7-40.43c26.38,0,47.45,13.84,47.45,39.09"/>
  <path class="st0" d="M694.43,407c.37,27.19,2,50.98,2,50.98h-10.22s1.65-24.9,1.65-36.59c0-4.51-.38-24.05-.38-28.08v-13.51s3.55.12,4.69,0l4.13,4.37c3.43,3.49,6.46,6.53,14.17,13.73,25.21,23.7,28,26.38,44.01,40.87v-4.15c0-28.66-1.62-54.83-1.62-54.83h10.31s-2.1,32.48-2.1,48.65c0,8.76.48,30.21.48,30.21h-4.41s-22.84-23-31.69-30.32c-2.12-1.79-4.28-3.71-6.4-5.62l-24.62-22.81v7.1"/>
  <path class="st0" d="M282.56,395.08l-13.25,27.87h26.87l-13.63-27.87M266.8,428.56c-2.52,5.18-11.74,29.42-11.74,29.42h-10.72l38.85-78.64h5.93l37.86,78.64h-15.52s-9.58-23.24-12.73-29.42h-31.93Z"/>
  <polyline class="st0" points="405.29 187.41 411.48 211.85 430.54 211.85 414.94 223.18 420.89 241.53 405.56 230.38 378.91 256.37 395.39 222.99 380.05 211.85 399.12 211.85 405.29 187.41"/>
  <path class="st0" d="M277.93,472.46c14.99,58.86,53.27,111.08,120.13,140.13v-22.73c-54.33-27.69-87.2-71.44-102.05-117.4h-18.09"/>
  <path class="st0" d="M279.89,354.59c14.36-52.67,45.59-98.54,99.26-126.82l.4.59c-47.66,30.13-74.79,75.09-86.32,126.23h-13.35"/>
</svg>