<?xml version="1.0" encoding="UTF-8"?>
<svg id="Capa_1" xmlns="http://www.w3.org/2000/svg" version="1.1" viewBox="0 0 800 800">
  <!-- Generator: Adobe Illustrator 29.3.1, SVG Export Plug-In . SVG Version: 2.1.0 Build 151)  -->
  <defs>
    <style>
      .st0 {
        fill: #ededed;
      }
    </style>
  </defs>
  <path class="st0" d="M41.48,471.15c-8.62-7.01-10.75-16.18-10.75-23.82,0-5.38,2.04-14.81,9.96-21.97,5.33-4.82,13.41-8.6,27.11-8.6,3.56,0,8.52.23,12.88.96,3.37.56,6.22,1.06,9.07,1.21.98.09,1.16.4,1.16.89,0,.63-.28,1.6-.46,4.5-.17,2.65-.17,7.08-.27,8.28-.09,1.21-.27,1.7-.8,1.7-.62,0-.71-.57-.71-1.7,0-3.14-1.42-6.44-3.74-8.21-3.12-2.4-9.95-4.57-17.78-4.57-11.81,0-17.33,3.13-20.44,5.87-6.49,5.63-8,12.79-8,20.99,0,15.37,13.06,29.45,32.1,29.45,6.66,0,11.91-.71,15.45-4.02,1.87-1.76,3.03-5.32,3.3-6.75.18-.89.35-1.21.88-1.21.46,0,.63.57.63,1.21,0,.57-1.06,7.56-1.96,10.29-.52,1.53-.7,1.69-2.29,2.34-3.57,1.28-10.32,1.85-16,1.85-13.35,0-22.33-2.99-29.35-8.7"/>
  <path class="st0" d="M156.85,458.46c0,6.7,0,12.2.38,15.13.22,2.02.69,3.54,3,3.83,1.08.14,2.77.29,3.48.29.45,0,.6.2.6.41,0,.36-.38.55-1.23.55-4.25,0-9.09-.2-9.49-.2s-5.23.2-7.53.2c-.86,0-1.24-.13-1.24-.55,0-.21.16-.41.63-.41.69,0,1.61-.14,2.3-.29,1.55-.29,1.93-1.81,2.24-3.83.38-2.93.38-8.44.38-15.13v-7.32c0-.28-.23-.41-.46-.41h-32.67c-.23,0-.46.06-.46.41v7.32c0,6.7,0,12.2.38,15.13.23,2.02.69,3.54,3,3.83,1.08.14,2.77.29,3.46.29.48,0,.63.2.63.41,0,.36-.37.55-1.24.55-4.23,0-9.08-.2-9.48-.2s-5.23.2-7.54.2c-.85,0-1.23-.13-1.23-.55,0-.21.15-.41.62-.41.69,0,1.61-.14,2.31-.29,1.54-.29,1.93-1.81,2.23-3.83.38-2.93.38-8.44.38-15.13v-12.28c0-10.88,0-12.84-.15-15.06-.15-2.36-.77-3.49-3.3-3.97-.63-.15-1.94-.22-2.62-.22-.32,0-.63-.14-.63-.41,0-.43.38-.57,1.23-.57,3.47,0,8.32.21,8.7.21s5.24-.21,7.56-.21c.85,0,1.23.14,1.23.57,0,.27-.31.41-.62.41-.53,0-1.01.06-1.92.22-2.08.34-2.7,1.52-2.85,3.97-.15,2.22-.15,4.19-.15,15.06v1.46c0,.34.22.42.46.42h32.67c.22,0,.46-.08.46-.42v-1.46c0-10.88,0-12.84-.16-15.06-.15-2.36-.76-3.49-3.31-3.97-.62-.15-1.92-.22-2.61-.22-.32,0-.62-.14-.62-.41,0-.43.38-.57,1.22-.57,3.47,0,8.32.21,8.7.21s5.24-.21,7.56-.21c.85,0,1.23.14,1.23.57,0,.27-.3.41-.62.41-.54,0-1,.06-1.92.22-2.08.34-2.69,1.52-2.84,3.97-.16,2.22-.16,4.19-.16,15.06v12.28"/>
  <path class="st0" d="M184.27,446.18c0-10.88,0-12.84-.15-15.06-.16-2.36-.76-3.49-3.31-3.97-.62-.15-1.92-.22-2.63-.22-.3,0-.6-.14-.6-.41,0-.43.38-.57,1.23-.57,3.46,0,8.32.21,8.7.21.55,0,15.88,0,17.64-.07,1.47-.07,2.72-.2,3.32-.34.39-.06.7-.35,1.07-.35.23,0,.31.29.31.63,0,.5-.37,1.33-.61,3.27-.07.71-.23,3.77-.38,4.61-.08.36-.24.77-.54.77-.46,0-.62-.35-.62-.89,0-.5-.07-1.69-.46-2.52-.55-1.12-1.33-1.96-5.49-2.37-1.31-.13-9.71-.22-10.55-.22-.31,0-.46.22-.46.71v19.24c0,.49.07.7.46.7,1,0,10.48,0,12.26-.14,1.84-.14,2.93-.28,3.61-.97.55-.56.86-.9,1.16-.9.23,0,.38.13.38.54s-.38,1.61-.6,3.92c-.15,1.39-.31,3.98-.31,4.46,0,.56,0,1.32-.55,1.32-.38,0-.53-.27-.53-.62,0-.7,0-1.4-.32-2.31-.3-.97-1-2.16-4-2.43-2.08-.21-9.7-.36-11.01-.36-.38,0-.53.22-.53.49v6.14c0,2.37-.09,10.46,0,11.92.22,4.82,1.38,5.71,8.92,5.71,2.02,0,5.4,0,7.4-.76,2.01-.77,2.93-2.16,3.47-5.03.15-.76.31-1.05.7-1.05.46,0,.46.56.46,1.05,0,.56-.61,5.3-1.01,6.77-.53,1.81-1.16,1.81-4.15,1.81-11.63,0-16.8-.42-19.04-.42-.15,0-1.45.06-3.08.06-1.55.07-3.32.13-4.48.13-.84,0-1.22-.13-1.22-.55,0-.21.16-.41.61-.41.71,0,1.62-.14,2.32-.29,1.55-.29,1.92-1.81,2.23-3.83.38-2.93.38-8.44.38-15.13v-12.28"/>
  <path class="st0" d="M249.9,470.17c4.48-9.35,14.79-33.68,16.49-38.71.38-1.04.7-2.02.7-2.65,0-.55-.23-1.26-1.01-1.6-.92-.28-2.08-.28-2.93-.28-.46,0-.85-.06-.85-.41,0-.43.47-.57,1.7-.57,3.09,0,6.62.21,7.54.21.47,0,3.78-.21,6.02-.21.84,0,1.31.14,1.31.49s-.31.48-.92.48c-.54,0-2.23,0-3.69.85-1.01.62-2.16,1.8-4.24,6.55-.85,1.95-4.69,10.32-8.62,18.9-4.7,10.19-8.17,17.71-9.95,21.13-2.15,4.18-2.45,5.28-3.24,5.28-.91,0-1.31-.98-2.77-4.31l-18.87-42.76c-1.69-3.91-2.85-4.66-5.55-5.36-1.17-.28-2.47-.28-2.93-.28s-.63-.21-.63-.48c0-.42.77-.49,2.02-.49,3.69,0,8.09.21,9.01.21.76,0,4.24-.21,7.16-.21,1.39,0,2.08.14,2.08.49s-.23.48-.76.48c-.86,0-2.24.06-2.93.37-.85.33-1,.88-1,1.37,0,.92.92,3.08,2.07,5.8l14.79,35.71"/>
  <path class="st0" d="M288.96,455.61c-.22,0-.38-.15-.22-.48l6.78-18.84c.39-1.05.76-1.05,1.16,0l7.32,18.84c.07.27.07.48-.32.48h-14.72M278.18,471c-1.39,3.5-2.93,6.14-6.47,6.57-.61.07-1.69.14-2.23.14-.39,0-.69.14-.69.41,0,.42.46.55,1.46.55,3.62,0,7.85-.2,8.7-.2s4.16.2,6.01.2c.7,0,1.16-.13,1.16-.55,0-.27-.23-.41-.77-.41h-.76c-1.31,0-2.93-.63-2.93-2.04,0-1.24.38-2.91,1.08-4.67l4.62-12.33c.16-.35.39-.56.77-.56h16.56c.38,0,.53.15.69.43l7.17,17.14c.46,1.12,0,1.75-.48,1.89-.31.07-.53.21-.53.49,0,.42.85.42,2.31.48,5.32.13,10.94.13,12.09.13.85,0,1.54-.13,1.54-.55,0-.34-.31-.41-.76-.41-.77,0-1.92-.07-3.08-.43-1.61-.41-3.86-1.51-6.62-7.73-4.7-10.6-16.8-39.4-17.96-42.05-.91-2.16-1.22-2.51-1.69-2.51s-.77.41-1.7,2.72l-17.49,43.29Z"/>
  <path class="st0" d="M344.96,458.6c0,10.25.31,14.72,1.7,15.97,1.23,1.1,3.24,1.6,9.24,1.6,4.09,0,7.48-.07,9.32-2.1,1.01-1.11,1.78-2.84,2.01-4.18.08-.57.23-.91.7-.91.38,0,.46.28.46,1.06s-.53,4.95-1.16,6.97c-.54,1.6-.76,1.88-4.85,1.88-11.1,0-16.18-.42-20.64-.42-.33,0-1.63.06-3.17.06-1.54.07-3.23.13-4.39.13-.84,0-1.22-.13-1.22-.55,0-.21.15-.41.6-.41.69,0,1.62-.14,2.31-.29,1.55-.29,1.93-1.81,2.24-3.83.38-2.93.38-8.44.38-15.13v-12.28c0-10.88,0-12.84-.15-15.06-.16-2.36-.76-3.49-3.32-3.97-.61-.15-1.92-.22-2.61-.22-.32,0-.62-.14-.62-.41,0-.43.38-.57,1.23-.57,3.46,0,8.31.21,8.71.21.37,0,6.01-.21,8.32-.21.84,0,1.22.14,1.22.57,0,.27-.3.41-.61.41-.54,0-1.62.06-2.56.22-2.24.34-2.84,1.52-3,3.97-.15,2.22-.15,4.19-.15,15.06v12.42"/>
  <path class="st0" d="M528,475.25c.52,1.29,0,2.01-.54,2.17-.35.09-.62.24-.62.57,0,.48.98.48,2.65.55,6.13.17,12.64.17,13.96.17.99,0,1.78-.17,1.78-.64,0-.41-.37-.49-.88-.49-.9,0-2.23-.07-3.57-.48-1.88-.47-4.45-1.76-7.65-8.92-5.41-12.24-19.37-45.46-20.71-48.52-1.06-2.5-1.42-2.9-1.94-2.9s-.9.48-1.96,3.14l-20.16,49.97c-1.61,4.02-3.4,7.07-7.48,7.56-.72.09-1.95.16-2.58.16-.46,0-.81.16-.81.49,0,.47.53.64,1.69.64,4.18,0,9.08-.24,10.06-.24s4.77.24,6.93.24c.8,0,1.33-.17,1.33-.64,0-.33-.25-.49-.87-.49h-.91c-1.52,0-3.39-.73-3.39-2.33,0-1.45.46-3.37,1.26-5.39l14.75-40.07c.43-1.2.89-1.2,1.35,0l18.3,45.46"/>
  <path class="st0" d="M557.92,469.2c.15,5.71.92,7.53,3,8.08,1.46.36,3.17.43,3.84.43.39,0,.64.14.64.41,0,.42-.48.55-1.4.55-4.37,0-7.47-.2-8.17-.2s-3.92.2-7.39.2c-.76,0-1.23-.06-1.23-.55,0-.27.23-.41.61-.41.63,0,2.01-.07,3.17-.43,1.92-.49,2.31-2.52,2.31-8.85l.06-39.97c0-2.71.23-3.47.85-3.47s1.92,1.54,2.71,2.23c1.15,1.18,12.63,12.42,24.5,23.92,7.62,7.4,16.02,15.9,18.48,18.19l-.86-35.42c-.06-4.53-.6-6.06-2.99-6.61-1.39-.3-3.16-.37-3.78-.37-.54,0-.62-.21-.62-.48,0-.42.62-.49,1.54-.49,3.47,0,7.17.21,8,.21s3.41-.21,6.57-.21c.84,0,1.39.07,1.39.49,0,.28-.32.48-.87.48-.38,0-.93,0-1.85.22-2.55.48-2.84,2.02-2.84,6.19l-.16,40.88c0,4.6-.16,4.95-.69,4.95-.61,0-1.55-.77-5.61-4.47-.86-.7-11.94-10.94-20.11-18.89-8.95-8.72-17.64-17.5-20.11-20.01l1,33.4"/>
  <path class="st0" d="M635.28,445.07c0-5.37,0-12.5.06-14.87,0-.76.23-1.11.93-1.39.62-.28,3.46-.49,5-.49,9.16,0,17.95.97,25.19,7.88,3.16,3,7.41,8.72,7.41,17.57,0,6.42-2.16,13.12-6.18,16.67-4.53,4.11-11.16,6.48-18.33,6.48-9.08,0-12.11-1.46-13.09-2.78-.63-.77-.77-3.56-.85-5.3-.08-1.33-.15-7.73-.15-15.13v-8.64M628.8,458.46c0,6.7,0,12.2-.38,15.13-.32,2.02-.68,3.54-2.23,3.83-.7.14-1.62.29-2.31.29-.47,0-.62.2-.62.41,0,.42.37.55,1.22.55,2.32,0,7.17-.2,7.57-.2.74,0,10.46.83,17.09.83,13.09,0,20.03-4.88,23.34-8.01,4.31-4.12,8.32-10.88,8.32-19.67,0-8.3-3.63-14.09-7.48-17.72-9.16-8.57-23.26-7.95-30.88-7.95-4.64,0-9.48.21-10.41.21-.38,0-5.23-.21-8.7-.21-.85,0-1.23.14-1.23.57,0,.27.31.41.61.41.7,0,2.02.06,2.62.22,2.56.48,3.15,1.61,3.31,3.97.16,2.22.16,4.19.16,15.06v12.28Z"/>
  <path class="st0" d="M698.7,446.18c0-10.88,0-12.84-.17-15.06-.16-2.36-.76-3.49-3.31-3.97-.6-.15-1.92-.22-2.63-.22-.3,0-.62-.14-.62-.41,0-.43.41-.57,1.25-.57,3.46,0,8.31.21,8.7.21.53,0,15.87,0,17.65-.07,1.46-.07,2.68-.2,3.3-.34.39-.06.7-.35,1.09-.35.22,0,.31.29.31.63,0,.5-.38,1.33-.63,3.27-.07.71-.22,3.77-.38,4.61-.08.36-.24.77-.55.77-.46,0-.62-.35-.62-.89,0-.5-.07-1.69-.45-2.52-.55-1.12-1.32-1.96-5.48-2.37-1.32-.13-9.72-.22-10.57-.22-.3,0-.46.22-.46.71v19.24c0,.49.08.7.46.7,1.03,0,10.48,0,12.26-.14,1.87-.14,2.94-.28,3.61-.97.55-.56.87-.9,1.19-.9.21,0,.36.13.36.54s-.36,1.61-.59,3.92c-.17,1.39-.33,3.98-.33,4.46,0,.56,0,1.32-.52,1.32-.39,0-.54-.27-.54-.62,0-.7,0-1.4-.32-2.31-.31-.97-.99-2.16-4.01-2.43-2.07-.21-9.7-.36-11.01-.36-.38,0-.54.22-.54.49v6.14c0,2.37-.06,10.46,0,11.92.25,4.82,1.39,5.71,8.94,5.71,1.99,0,5.4,0,7.37-.76,2.03-.77,2.95-2.16,3.48-5.03.16-.76.32-1.05.7-1.05.48,0,.48.56.48,1.05,0,.56-.63,5.3-1.02,6.77-.55,1.81-1.15,1.81-4.15,1.81-11.64,0-16.8-.42-19.04-.42-.16,0-1.46.06-3.09.06-1.54.07-3.32.13-4.47.13-.86,0-1.23-.13-1.23-.55,0-.21.16-.41.62-.41.69,0,1.62-.14,2.31-.29,1.53-.29,1.93-1.81,2.22-3.83.41-2.93.41-8.44.41-15.13v-12.28"/>
  <path class="st0" d="M740.75,477.77c-1.08-.49-1.15-.76-1.15-2.65,0-3.49.32-6.28.38-7.4.09-.76.24-1.11.62-1.11.47,0,.53.21.53.76,0,.63,0,1.6.26,2.58,1.15,5.17,6.22,7.12,11.4,7.12,7.41,0,11-4.82,11-9.27,0-4.82-2.22-7.61-8.86-12.56l-3.45-2.58c-8.17-6.06-10.02-10.39-10.02-15.14,0-7.46,6.14-12.55,15.93-12.55,3.01,0,5.25.27,7.17.7,1.46.27,2.08.34,2.71.34s.76.14.76.5-.29,2.65-.29,7.38c0,1.12-.17,1.6-.55,1.6-.48,0-.55-.33-.63-.91-.07-.81-.54-2.71-1.01-3.47-.45-.76-2.54-3.7-9.61-3.7-5.32,0-9.5,3-9.5,8.08,0,3.98,2.18,6.36,9.41,11.73l2.14,1.54c9.1,6.47,11.27,10.8,11.27,16.38,0,2.85-1.24,8.16-6.55,11.58-3.31,2.09-7.48,2.91-11.65,2.91-3.61,0-7.17-.48-10.32-1.87"/>
  <path class="st0" d="M547.15,328.38l-.54-.36c-.86-.54-2.85-2.2-2.87-5.77-2.16-1.6-3.59-4.04-5.07-6.61-.41-.72-.85-1.46-1.31-2.21l-.38-.27c-3.96-2.78-7.7-5.42-7.87-14.16l-.17-.14c-.54-.74-1.02-1.39-1.52-1.98-.37-.13-.77-.21-1.18-.24-5.04-.25-8.07-3.77-10.77-6.86-2.22-2.56-4.32-4.99-7.23-5.33v-.83c4.2.04,7.79,3.17,11.26,6.21,1.58,1.38,3.07,2.69,4.6,3.69,1.49.79,2.58,1.67,3.64,2.91,4.79,1.84,5.82,10.92,5.86,11.32,1.88,1.79,3.22,3.78,4.16,5.31,3.09,2.19,5.78,4.39,7.48,8.94-.08,2.25.46,3.14.99,4,.3.49.62,1.01.77,1.73l.15.63"/>
  <path class="st0" d="M218.3,333.87v-1.63l.22-.04c16.32-2.32,33.92-5.38,51.97-12.01,17.37-6.37,30.68-14.5,41.88-25.58,4.3-3.9,8.65-5.79,13.29-5.79,5.66,0,11.71,2.82,18.51,8.62,5.71,3.81,8.28,4.29,9.87,4.29.89,0,1.62-.17,2.4-.35.77-.19,1.62-.39,2.67-.39,2.1,0,4.65.86,8.01,2.71,18.52,11,42.14,18.62,54.56,22.19l.19.05v1.66l-.34-.1c-2.64-.82-5.32-1.62-8-2.44-17.76-5.38-36.13-10.94-52.19-20.85-1.62.65-3.45.97-5.21.97-5.43,0-9.75-2.96-13.92-5.81-4.33-2.98-8.34-5.72-13.39-5.72-2.74,0-5.53.81-8.53,2.5-.12.1-16.91,14.23-31.38,20.5-15.86,6.9-43.8,15.54-70.34,17.21l-.28.02"/>
  <path class="st0" d="M263.74,402.85c-.8,0-1.58,0-2.37-.04h-.27s-.19-.41-.19-.41c-.01-.6,1.2-1.72,2.62-1.84.91-.07,1.89-.1,2.9-.12,1.84-.05,3.74-.11,5.32-.44,25.15-2.64,42.79-11.13,61.58-23.06,1.22-.84,30.2-20.85,36.24-20.85,6.44.5,11.78,3.47,16.94,6.34,2.9,1.61,5.89,3.28,8.96,4.43,14.19,7.04,31.08,7.1,47.41,7.16,15.94.07,32.41.13,46.42,6.62,15.79,6.59,36.03,14.27,52.53,15.06l.04.53c-.92.15-1.93.22-3.11.22-4.05,0-9.21-.89-14.66-1.82l-.48-.08c-8.3-2.05-16.36-5.05-24.16-7.96-13.31-4.94-27.07-10.07-42.36-10.66l-4.22.11c-5.11.13-10.28.27-15.43.27-11.23,0-25.85-.59-39.25-5.17-.19.04-.49.05-.77.05-4.62,0-8.2-2.72-12-5.59l-.28-.22c-3.53-2.66-7.53-5.7-12.65-5.7-3.54,0-7.31,1.42-11.49,4.34-29.77,21.92-54.75,33.66-78.62,36.93-5.48.95-11.97,1.91-18.63,1.91"/>
  <path class="st0" d="M643.64,344.21l-.22-.04c-5.32-.97-9.89-2.54-14.02-4.79-7.58-4.14-17.84-8.95-26.9-13.19-8.23-3.86-15.34-7.19-17.22-8.56-3.7-2.56-7.14-3.81-10.51-3.81-5.82,0-10.87,3.71-16.71,8.01l-2.21,1.62c-7.08,5.41-11.51,6.22-13.53,6.22-.27,0-.52-.01-.74-.04-.7-.09-1.51-.17-2.37-.17-.51,0-.98.06-1.44.13l-.07-.08-.32.06c-1.21.23-2.73.53-4.27,2.09-.42.37-.92.54-1.51.54-1.88,0-4.45-1.82-7.42-3.93-1.78-1.27-3.63-2.58-5.62-3.73-1.53-.87-2.99-.89-4.55-.91-1.52-.03-3.09-.05-4.92-.89-2.23-.89-2.43-2.39-2.62-5.16l-.5-.09c-1.47,3.27-4.38,7.58-7.8,11.52-6.49,7.46-15.58,9.96-25.18,12.6-9.05,2.49-18.41,5.06-25.24,12.14-4.22,1.96-8.78,3.25-13.18,4.49-6.92,1.95-14.07,3.97-20.1,8.68l.28.45c11.83-5.2,24.54-7.92,36.73-10.39,6.49-10.27,17.09-12.25,27.36-14.17,11.3-2.12,22.97-4.3,28.85-17.65,3.01,1.77,5.56,1.83,7.27,1.86.84.02,1.51.03,1.93.24,1.68.79,3.45,1.79,5.21,2.77,3.14,1.76,6.13,3.42,8.51,3.97-7.45,6.19-12.74,7.31-15.69,7.91l-1.06.22-.23.06.03.23.06.59.04.29.28-.05c.14-.03.37-.06.69-.11,2.29-.31,9.3-1.28,15.52-5.59,1.05-.76,1.97-1.68,2.89-2.57,1.86-1.84,3.61-3.57,6.05-3.57h.36c1.4.35,2.78.52,4.13.52,6.09,0,10.81-3.5,15.52-6.98,4.56-3.38,9.27-6.87,15.59-6.87,2.16,0,4.36.4,6.72,1.23.19.07,18.96,7.23,36.71,17.65,5.87,3.45,13.63,6.1,23.1,7.86.34.06.69.08,1.02.08,1.4,0,1.41-.25,1.42-.39l-.1-.28"/>
  <path class="st0" d="M234.18,357.86c-8.33,0-23.59-.3-32.36-2.34l-.21-.04v-1.79l.3.05c6.71.95,17.69,1.59,27.32,1.59,3.97,0,7.56-.11,10.39-.32,17.33-1.31,40.5-6.04,56.38-11.5,15.67-5.39,28.62-8.98,40.87-8.98,6.13,0,11.72.9,17.1,2.76,9.19-4.52,20.47-9.15,32.94-9.15,3.65,0,7.28.41,10.78,1.22,6.47,2.02,13.52,3.04,20.98,3.04,22.64,0,43.97-9.39,50.64-16.17l16.8-15.28,2.42-2.38.75-.65c1.51-1.27,3.76-3.15,6.86-4.8-5.36-1.69-11.25-2.63-16.7-2.63-3.87,0-7.44.46-10.6,1.37,5.89.88,8.19,1.42,13.9,4.32l.37.17-.31.27-1.95,1.67c-5.34-2.65-15.15-4.65-19.06-4.65-5.62,0-11.27,1.82-16.72,3.57-1.97.63-3.94,1.26-5.88,1.79l-.62.18c-10.17,2.81-21.67,6-33.13,6-4.64,0-9.02-.53-13.06-1.59l-.73-.2.7-.3.88-.39c3.94.62,7.59.94,11.31.94,13.47,0,25.15-4.16,38.7-8.96,2.54-.9,5.13-1.82,7.79-2.74-12.5-2.21-21.72-3.21-29.81-3.21-14.12,0-24.09,3.04-40.57,8.08-3.5,1.07-7.29,2.23-11.46,3.46l-.18-.5,3.57-1.62,2.85-1.02c20.43-7.26,32.75-11.64,49.51-11.64,9.53,0,20.29,1.4,34.9,4.52,8.68-1.89,16.03-2.81,22.36-2.81,8.02,0,14.33,1.51,18.77,4.5.02-.09.99-.43,1.25-.43.59.15,2.49.96,2.39,1.51-10.57,3.77-19.38,12.5-27.9,20.95-4.21,4.17-8.56,8.49-12.97,11.99-2.07,1.65-4.72,1.95-7.28,2.25-1.92.22-3.91.45-5.57,1.26-5.82,5.24-12.74,7.7-21.76,7.7-6.48,0-13.12-1.24-20.15-2.54-7.1-1.31-14.17-2.62-21.15-2.62-10.36,0-18.47,2.93-25.54,9.23-1,.87-2.26,1.29-3.86,1.29-1.94,0-4.01-.63-5.67-1.14-.7-.22-1.34-.41-1.85-.52-5.14-1.22-10.4-1.8-16.04-1.8-15.96,0-32.11,4.87-47.74,9.58-14.47,4.36-29.43,8.87-43.92,9.33-2.59.07-5.68.12-9.02.12"/>
  <path class="st0" d="M560.15,435.61c-.14.19-.14.1-.26.37h-.13c.04.12.1.24.13.37.37-.01.54-.05.76-.12-.02-.28-.02-.34-.12-.49-.15-.09-.14-.08-.39-.12"/>
  <path class="st0" d="M560.15,435.61c-.14.19-.14.1-.26.37h-.13c.04.12.1.24.13.37.37-.01.54-.05.76-.12-.02-.28-.02-.34-.12-.49-.15-.09-.14-.08-.39-.12"/>
  <path class="st0" d="M534.44,442.17h-2.08l1.05-.98c.2-.14.34-.14.63-.17l.36-.03.04.36v.82"/>
  <path class="st0" d="M575.92,433.08c-.69.01-1.25.04-1.82.06-.74.03-1.5.06-2.56.06h-.35l-.1.11c-.14.14-.34.29-.56.44l-.15.22h0s-.11-.28-.11-.28h-.21c-.41,0-.86.08-1.27.15-.31.05-.58.11-.96.11h-.14c-.24-.05-.52-.15-.79-.26.22-.1.44-.25.64-.41.22-.19.42-.36.64-.39l.49.09c.12.08.29.17.55.17.24,0,.55-.09,1.16-.6,0-.39-.06-.59-.33-1.03-.27-.1-.47-.14-.65-.14l-.9.11-.05.02c-.32-.05-.6-.13-.89-.21-.39-.1-.79-.22-1.38-.22-.17,0-.35.01-.56.03-.18.2-.48.52-.64.52l-.54-.38c-.83.03-1.19.27-1.52.47-.15.1-.3.2-.5.28-.28.1-.67.17-1.01.22-.26.05-.49.1-.63.14-.25.06-.54.06-.82.06-.4,0-.82,0-1.19.17-.66,0-.72-.11-1.23-.62l-1.36.08c-.11.1-.29.19-.48.29-.35.17-.71.36-.86.66-.14.23-.19.46-.24.64-.03.15-.06.29.03.29.02,0,.03,0,.04,0-.47.09-.93.24-1.37.38-.29.08-.55.17-1.01.26-.19,0-.33-.07-.56-.2-.18-.08-.39-.2-.78-.2h-.09c-.4.07-.74.33-1.07.58-.29.21-.57.44-.83.52l-2.91.28c-.26-.09-.56-.2-.9-.2l-.4.05-.05.02-1.58.5c-.92.29-1.91.6-2.73.83-.53.14-.99.17-1.42.22-.53.05-1.05.1-1.65.28-.46.13-1.01.34-1.52.55-1.41.76-1.95,0-2.77,1.31-.49.27-1.04.47-1.56.66-.37.13-.74.27-1.26.73-.22-.05-.44-.1-.72-.1l-.37.14-.1.16c-.19.31-.2.44-.08.85l.05.24h.28c.65-.02.84-.12,1.16-.32l.15-.15.24.13h.22c1,0,2.25-.44,3.24-.79l.52-.16-.19.34.06.31c.06.32.1.42.21.59l.18.3h.18c1.09,0,1.76-.15,2.63-.86-.03-.34-.05-.46-.46-.91l-1.46-.13c1.12-.33,1.79-.48,2.78-.72,1.21-.29,2.41-.57,3.57-.94l1.36-.19,1.24-.18c.18-.06.39-.09.56-.15-.21.09-.41.18-.56.27l-.21.12v.02h-.45l-1.26.1c-.13.12-.34.21-.53.28l-.37.36.03.26c.04.25.06.32.13.46l.1.3h.23s.49.02.49.02c.64,0,1.55-.16,1.99-.98.19.19.49.33.94.33.88,0,2.05-.49,2.9-.86.31-.13.56-.24.73-.29l.7.03c.34,0,.53-.2.66-.4v.09l.28.05c.19.03.41.05.67.05,1.85,0,5.66-.82,6.86-1.77-.04-.29-.06-.34-.12-.49l-.1-.28h-.22s-1.87-.06-1.87-.06c-.42.3-1.15.35-1.88.39.77-.17,1.54-.33,2.25-.53l1.53-.23,1.58-.27c.36-.11.83-.44,1.46-.87.12,0,.26.06.41.14.19.08.45.18.76.18l.36-.05h.04c.21-.07.39-.22.55-.38.14-.1.27-.22.26-.23h.76c-.18.06-.33.16-.52.23-.47.15-.94.37-1.43.8l-.68.14h-.18l-1.04.17c-.31.54-.35.73,0,1.31l.1.17h.2c.59-.01.77-.1,1.12-.28l.83-.18-.12-.03,1.32-.07,1.37-.07c.3-.07.62-.22.95-.38.3-.14.6-.28,1.14-.39.16,0,.31.03.52.06.18.03.36.05.54.05.31,0,.56-.08.63-.18.51-.03.66-.1.94-.24h.01s.68,0,.68,0c.97,0,4.38-.38,4.88-.65l.42-.09v-1.02h-.33M551.41,436.66l-.42.23v.2c-.24-.1-.46-.16-.81-.2.42-.09.86-.18,1.28-.27,0,.01-.03.02-.05.03Z"/>
  <path class="st0" d="M368.71,493.68l-.21-.33c-.1-.15-.15-.27-.2-.57.45-.59.92-1.31,1.16-1.93h-.45c-.42-.5-.48-.9-.47-1.43.55-.68,1.8-2.71,2.45-4.01-.37.2-.77.37-1.18.43l-.21.04-.2-.34c-.12-.21-.17-.33-.21-.73,1.09-1.29,1.83-2.7,2.54-4.06.42-.81.84-1.63,1.33-2.38,1.12-1.74,2.42-3.37,3.66-4.95.62-.79,1.24-1.57,1.85-2.38.57-.76,1.67-1.41,2.74-2.03.96-.57,1.94-1.15,2.39-1.72-.47-.16-.85-.39-.87-1.28.57-.61.82-1.1,1.09-1.6.15-.31.31-.62.51-.91.59-.88,1.28-1.68,1.97-2.5.59-.69,1.19-1.4,1.73-2.13.29-.43.77-.82,1.28-1.18-.53.29-1.01.47-1.39.48h-.22l-.15-.33c-.16-.36-.21-.47-.59-.54-.04.19-.38.21-.68.22-.22.02-.43.03-.66.13-.36.21-2.82,2.58-3,2.97h.04c.3,0,.34.27.36.86l-.36.52c-.29.31-.56.61-1.36.68l-.26.02-.18-.49c-.03-.08-.07-.21-.12-.32-.84.87-1.94,1.57-3.01,2.24-.42.27-.85.54-1.24.8-1.1.78-2.12,1.65-3.14,2.53-1.04.9-2.09,1.8-3.23,2.6-.63.42-1.15,1.03-1.7,1.67-.53.62-1.08,1.27-1.75,1.75-.46.33-.92.59-1.41.86-.47.26-.93.52-1.39.84l-1.1,1.13-.76.77c-2.05,1.35-3.94,2.73-5.83,4.11-2.53,1.86-5.16,3.78-8.01,5.47l-.51.3c-1.86,1.12-4.98,3-7.6,3-.32,0-.64-.03-.92-.09l-.61.07-.71.05h-.03c-2.01,0-3.35-.74-3.87-2.02-.6-1.53-.29-4.31.13-5.72.13-.47.19-.92.27-1.36.11-.66.21-1.28.5-1.97,1.07-2.41,2.38-4.58,4.38-7.26,9.79-13.04,22.48-21.89,38.79-27.08.91-.28,1.78-.41,2.67-.55.7-.11,1.41-.22,2.2-.41,1.22-.32,3.51-.92,5.56-.92.31,0,.63.02.92.05.45.03.93.05,1.43.07.99.04,2,.07,2.83.3.25.07.52.16.8.25.57.2,1.18.4,1.76.4.46,0,.86-.12,1.25-.36.51-.32.85-.83,1.22-1.39.28-.41.55-.81.89-1.14.51-.49,1.14-.85,1.75-1.2.74-.43,1.44-.83,1.91-1.44.23-.29.47-.57.71-.85.38-.45.75-.89,1.05-1.33.37-.52.61-1.09.85-1.69.27-.64.53-1.27.96-1.86.38-.53.9-.97,1.39-1.41.41-.37.84-.74,1.17-1.16l.31-.38c.38-.52.79-1.03,1.25-1.47l.42-.38,1.38-1.22c1.49-1.97,3.2-4.2,5.29-5.29.32-.17.64-.23.96-.3.25-.05.5-.09.7-.19.28-.14.49-.31.7-.48.5-.37,1.01-.76,1.99-.78.46.4.63.54,1.07.61.04-.43.4-.61,1.24-.61l.93.48.64.43c.27.31.41.58.55.84.15.3.3.57.52.77.26,2.49-1.41,4.01-2.9,5.34-.61.56-1.23,1.1-1.67,1.68-.61.81-1.08,1.68-1.57,2.54-.5.88-.99,1.77-1.61,2.59l-.94.79c-.76.98-1.57,1.99-2.54,2.91l-.9.8-.89.79c-.46.57-1.05,1.11-1.65,1.63-.59.51-1.17,1.02-1.62,1.61-.18.25-.35.5-.52.76-.32.47-.64.94-1.05,1.34l-1.6,1.49-1.46,1.34c-.43.26-.93.31-1.4.37-.52.05-1.03.11-1.25.35-.56.64-1.31,1.92-1.21,2.2.48.12.8.19,1.01.59l.03.17.05.57c-.85.99-1.63,2-2.41,3.02l-.77,1c-.54.69-1.16,1.33-1.79,1.97-.61.62-1.23,1.24-1.76,1.94-.39.49-.94.86-1.46,1.21-.52.35-1.02.67-1.36,1.11-.86,1.11-1.84,2.16-2.82,3.19-.97,1.02-1.94,2.04-2.78,3.14-1.99,2.64-4.35,5.45-6.11,5.5-.46-.49-.57-.67-.59-1.19-.65.71-1.27,1.42-1.84,2.16-.83,1.11-1.6,2.26-2.38,3.41-.71,1.07-1.43,2.14-2.21,3.18-.52.71-1.05,1.44-1.56,1.92l.33.19c.57.4,1.17.81,1.17,1.97-.39.54-.62.93-.84,1.33-.15.28-.31.54-.49.81-.87,1.24-1.87,2.55-2.79,3.76-.16.21-.28.42-.41.63-.39.67-.85,1.45-1.87,1.6l-.21.03M387.04,448.41c-.59.31-1.33.33-2.05.33-.51.01-1.04.02-1.51.13-1.92.47-3.84,1.04-5.57,1.59-.53.16-1.04.25-1.54.33-.56.1-1.09.19-1.61.39-.89.35-1.79.68-2.69,1-1.57.57-3.2,1.17-4.7,1.92-1.2.59-2.39,1.38-3.54,2.15-.52.34-1.03.68-1.53.99l-.57.22-.51.19c-2.79,1.79-5.6,4.06-8.55,6.88l-1.16,1.08c-1.62,1.5-3.3,3.03-4.4,4.82l-.22.77-.25.86c-.23.54-.58,1.01-.91,1.45-.23.32-.47.63-.64.93-.7,1.26-1.18,2.43-1.71,3.68l-.7,1.66c-.07.17-.2.41-.35.68-.3.57-.91,1.76-.81,2.17,0-.02.05-.03.15-.03h.16c.12-.13.43-.17.73-.21.21-.03.4-.05.58-.13.76-.3,1.76-.75,2.49-1.2,1.53-.89,3.07-1.76,4.62-2.62,2.46-1.37,4.99-2.79,7.36-4.32,3.63-2.33,7.13-4.96,10.52-7.51,2.38-1.79,4.75-3.58,7.19-5.28.73-.51,1.43-1.12,2.12-1.74.72-.64,1.44-1.27,2.22-1.81,1.53-1.07,2.95-2.25,4.36-3.45,1.28-1.08,2.56-2.15,3.93-3.13.22-.17.5-.33.79-.5.89-.52,1.81-1.07,1.87-2.06-.12.02-.28.03-.46.03-.44,0-1.01-.05-1.62-.1-.5-.05-1.01-.09-1.48-.17ZM395.29,452.65c-.37.05-.48.26-.59.47-.1.19-.19.38-.34.54-.18.2-.8.82-1.6,1.53.03,0,.06-.03.1-.03.42-.15.85-.3,1.21-.54.35-.22.58-.63.83-1.09.16-.27.31-.55.5-.78l.05-.04c-.06-.02-.12-.03-.15-.05Z"/>
  <path class="st0" d="M438.12,503.68l-.12-.33c-.05-.14-.07-.22-.11-.47l1.02-1.17.49-.46.98-.16.75-.05c.85-.31,3.35-1.59,4.02-2.12.26-.21.46-.57.64-.92.14-.26.29-.53.46-.74l.64-.56,1.34-1.18c1.33-1.78,2.74-3.79,4-5.68.7-1.04,1.33-2.13,1.96-3.2.48-.84.96-1.69,1.49-2.51l.13-.37.59-1.52c.19-.29.38-.46.58-.64.17-.17.37-.35.48-.53l.21-.8.14-.45c.67-1.6,1.33-3.09,2.05-4.68.15-.32.33-.65.52-.97.26-.43.5-.87.67-1.34-1.07.74-3.34,2.02-4.33,2.05h-.23l-.08-.22c-.08-.26-.12-.47-.14-.83l.57-.76.67-.7c.72-.49,1.44-.84,2.15-1.19.9-.42,1.73-.84,2.46-1.41-.19-.01-.24-.25-.25-.7,1.26-.95,1.72-2.46,2.15-3.92.21-.69.42-1.37.68-1.97l1.15-2.5c.89-1.93,1.8-3.92,2.55-5.78.21-.49.32-.93.42-1.38.11-.5.23-1,.48-1.54.15-.35.32-.66.51-.98.3-.53.59-1.03.75-1.67-1.41,1.68-3.32,2.7-5.19,3.69-.88.47-1.76.94-2.61,1.44-1.4.83-2.82,1.75-4.24,2.66-1.43.93-2.88,1.86-4.3,2.71-.29.17-.55.23-.82.3-.21.05-.41.1-.62.2-.45.23-.88.57-1.32.91-.35.29-.71.57-1.07.79-1.06.64-2.13,1.26-3.19,1.87l-2.05,1.18c-2.43,1.43-4.99,2.72-7.47,3.97-2.07,1.05-4.15,2.09-6.17,3.22-.5.28-.99.42-1.46.56-.4.12-.83.22-1.23.43-.66.33-1.35.69-2.04,1.08-1.24.66-2.5,1.36-3.72,1.86-3.63,1.5-7.41,2.78-12.66,4.29-.56.17-1.39.25-2.3.25-1.22,0-2.93-.17-3.7-.66-1.79-1.12-2.42-2.95-3.08-4.9-.16-.45-.31-.9-.49-1.35,0,.09,0,.11-.06.11-.03,0-.11-.01-.19-.03.03.08-.27.14-.75.14h-.46s-.52-.42-.52-.42c-.15-.16-.32-.34-.44-.66.51-.99,1.31-1.43,2.07-1.84.31-.16.61-.32.86-.49.31-.21,1-1.14,1.15-1.46l.07-.57v-.06l.09-.37c.2-.35.6-.49.96-.6.23-.08.48-.17.57-.29.22-.28.3-.65.4-1.05.11-.42.2-.85.47-1.25l.77-.55c.5-.51.73-.99,1.01-1.51.22-.46.48-.93.79-1.37.63-.85,1.32-1.65,2.02-2.45.63-.72,1.24-1.43,1.8-2.19.48-.61,1.07-1.14,1.68-1.67.55-.48,1.09-.97,1.53-1.51,2.78-3.5,6.48-6.8,11.04-9.82l.83-.93.8-.57c2.63-1.82,5.33-3.7,8.08-5.34.38-.22.78-.36,1.2-.49.39-.13.76-.27,1.1-.47,2.8-1.8,5.63-3.23,9.73-4.91.1-.04.22-.15.35-.26.18-.14.37-.29.56-.36l.05-.03.45-.06c.24,0,.47.06.66.12.17.05.34.11.5.11.49-.11.7-.3.94-.54.36-.33.82-.76,1.68-.83.51.31,1.91.76,2.52.76.28-.07.4-.14.51-.21.24-.14.51-.29,1.21-.31,1.02,1.03,2.14,1.6,3.34,2.19.96.48,1.97.98,2.76,1.69.24,4.7-4.98,7.99-8.79,10.4-.77.49-1.5.93-2.08,1.35-5.05,3.49-10.47,6.7-15.73,9.79-1.9,1.12-3.82,2.24-5.72,3.4-1.52.92-3.06,1.89-4.58,2.87-1.78,1.14-3.58,2.29-5.37,3.35-.69.41-1.4.77-2.11,1.13-.75.37-1.49.75-2.21,1.19-.18.1-.37.28-.54.45-.19.19-.39.38-.61.51-.35.22-.69.39-1.03.57-.68.34-1.26.63-1.69,1.19-.34.45-.56.94-.8,1.46-.14.31-.29.62-.46.94l-.2.35c-.36.64-.73,1.31-.77,2.19l.04.02.35.07s.15.11.65.11c1.42,0,4-.66,4.64-.89,5.68-2.03,10.27-3.96,14.48-6.08,7.9-3.97,14.86-7.76,21.29-11.58,1.05-.62,2.11-1.18,3.18-1.73,1.24-.64,2.48-1.29,3.69-2.05,4.13-2.62,8.19-5.48,12.13-8.25l3.01-2.12c1.27-.88,2.07-2.71,2.82-4.47.58-1.32,1.17-2.67,1.96-3.64.03-.04,2.02-1.52,2.22-1.58h1.47c-.1-.01.05-.17.17-.29.33-.36.73-.81,1.15-.93.16-.05.34-.07.53-.07.59,0,1.19.25,1.66.46.22.1.4.17.55.22h.11c.3,0,.47-.1.65-.22.27-.16.51-.33.84-.33,1.1.2,1.44.75,1.76,1.24.08.14.16.28.27.4.21.28.47.55.73.83.99,1.04,2.21,2.34,1.36,4.49-.59,1.46-1.65,2.55-2.66,3.6-.6.63-1.23,1.26-1.72,1.97-.93,1.33-1.78,2.72-2.63,4.11-.47.78-.95,1.57-1.44,2.34-.24.4-.4.82-.58,1.24-.08.22-.17.45-.28.66.17-.17.32-.34.47-.49l.88-.1h.35v.34c-.05,1.08-.49,1.85-.89,2.59-.29.52-.57,1.01-.7,1.57.33-.14.7-.19,1.05-.24.33-.05.66-.11.97-.22.29-.11.6-.27.93-.42.66-.31,1.38-.67,2.05-.81h.04s.35-.04.35-.04c.31,0,.67.06,1.06.12.5.07.92.13,1.35.13.29,0,.54-.02.75-.09.34-.09.77-.35,1.19-.59.33-.19.66-.37.93-.49.32-.13.71-.22,1.14-.33.99-.24,2.02-.5,2.11-1.24-.39-.15-.86-.32-.89-1.28v-.26s.41-.13.41-.13c.68-.37,4.2-1.28,5.02-1.3h.24l.08.24.1.42c.04.2.08.4.14.53,0-.09.12-.1.31-.1h.27c.24.11.38.17.69.17,1.41,0,4.3-1.29,5.01-1.7.46-.26.91-.27,1.35-.28.32-.01.66-.02,1.03-.12.19-.05.39-.19.6-.33.24-.16.5-.33.8-.4.46-.14.91-.14,1.29-.15.46,0,.84,0,1.18-.19.12-.06.19-.25.29-.43.1-.23.22-.49.46-.65l1.24-.41.56-.28c.99-.52,2.13-1.11,3.27-1.43l.73.05.54.06s.11-.1.23-.18c.29-.17.63-.38,1.23-.42l.36-.04v.74c.26-.13.62-.17.98-.24.29-.04.58-.09.88-.2.42-.15.87-.32,1.31-.5,1.44-.58,3.03-1.87,4.75-1.87l.21.64.43.3c.12.16.16.26.22.59l.03.13-.19.27c-.48.5-.79.57-1.06.61-.22.04-.41.09-.58.19-.23.15-.42.43-.64.73-.24.36-.5.74-.89.98-1.21.73-2.54,1.11-3.95,1.51-.87.24-1.75.49-2.61.84-2.55,1-5.16,2.04-7.65,3.04-.31.13-.57.16-.84.2-.23.04-.46.08-.68.17-.38.16-.8.4-1.21.64-.46.27-.91.53-1.34.71-.33.14-.65.21-.96.3-.49.13-.9.24-1.28.51-.14.1-.24.29-.36.49-.17.31-.39.71-.86.89-.42.15-.9.17-1.31.17h-.61c-.4,0-.82.02-1.1.18-.19.1-.32.32-.48.57-.17.28-.36.57-.66.75-.74.46-1.53.8-2.32,1.14-.67.28-1.36.57-2.02.94l-.54.77c-.35.27-.63.5-.9.75-1.14.95-2.4,2.04-4.34,2.05h-.84l.48-.93c.58-.56,1-1.08,1.2-1.52-.1.03-.2.04-.29.07-.33.06-.66.14-.9.28l-.57.64-1.25,1.36-.94.38-.59.21c-.65.37-1.33.84-1.99,1.32-.54.38-1.08.76-1.63,1.1-.69.42-1.18.54-1.75.68-.32.08-.68.17-1.12.32-.44.15-.91.5-1.37.84-.3.22-.59.45-.88.6-.65.38-1.32.66-1.99.94-.88.37-1.7.72-2.44,1.24-.5.36-.84,1.11-1.16,1.84-.23.54-.49,1.1-.82,1.5-.22.31-.57.41-.88.51-.22.06-.43.14-.53.24l-.27.79-.17.46c-.57,1.09-1.04,2.22-1.51,3.36-.53,1.27-1.07,2.55-1.72,3.76-.75,1.43-1.56,2.92-2.44,4.07-.52.68-1.15,1.32-1.78,1.96-.58.59-1.17,1.19-1.65,1.83-1.24,1.62-3.42,4.49-5.22,4.52-.39-.32-.5-.42-.63-.54-.16-.16-.34-.33-.47-.64-.1-.13-.11-.27-.15-.49.32-.49.68-1.07.96-1.57-.63.49-1.21,1.08-1.79,1.67-.2.03-.37.03-.51.03-.4,0-.58-.08-.75-.16-.27.17-.55,1.33-.55,1.56.12-.03.21-.05.32-.05.32,0,.51.22.55.8-.53.72-.86,1.28-1.21,1.86-.23.4-.47.79-.74,1.16l-.5.48-.43.43c.1.49.13.87-.21,1.31-.21.23-.48.36-.72.48-.13.05-.27.11-.37.19-.22.15-.42.32-.66.5-.52.41-1.06.85-1.71,1.12-.52.21-1.05.24-1.55.24-.77,0-1.28,0-1.81.13-.47.12-1.08.2-1.71.27-.55.06-1.12.13-1.61.23h-.04s-.35.03-.35.03c-.29,0-.57-.05-.85-.09-.24-.05-.46-.09-.65-.09-.4.17-.59.27-1.1.29h-.24M458.48,485.53c-.08.13-.16.24-.24.37-.33.52-.66,1.04-.99,1.57.34-.41.68-.84.97-1.28.13-.2.2-.42.27-.66ZM418.61,457.77c.35.24.34.61.32,1v.18s-.17.26-.17.26c-.1.06-.2.15-.3.26.37-.18.74-.37,1.11-.59l2.53-1.52,3.6-2.14c4.38-2.61,8.77-5.39,13.13-8.16l5.23-3.3c.34-.21.69-.36,1.04-.5.33-.14.66-.27.98-.48.77-.49,1.51-1.08,2.25-1.66.77-.62,1.54-1.23,2.36-1.75.21-.14.45-.27.68-.4.84-.46,1.7-.94,1.85-1.81-.1.05-.15.06-.22.06s-.15-.03-.29-.05c-.34.37-1.11.54-1.88.69-.47.11-.96.2-1.37.38-1.31.54-2.67,1.21-3.94,1.87l-1.15.56-1.58.51c-2.11,1.19-4.44,2.5-6.56,3.76-.3.19-.63.29-.94.39-.3.09-.58.18-.84.33-.93.59-1.85,1.27-2.75,1.95-.99.72-1.97,1.45-2.98,2.08-.35.22-.77.28-1.18.35-.36.05-.71.1-.99.27-.17.11-1.44,1.13-1.58,1.27-.07.13-.11.29-.12.47-.03.29-.07.64-.46.92-.2.13-.42.13-.61.13-.6.13-.98.43-1.29.69-.18.15-.36.3-.52.4-.32.23-.56.59-.83.97-.27.4-.56.81-.96,1.11-.79.55-1.35.94-1.58,1.51Z"/>
  <path class="st0" d="M447.9,474.69c-1.09.06-1.74.62-2.3,1.11-.22.19-.45.37-.68.53-.7.46-1.44.83-2.19,1.19-.96.46-1.95.94-2.8,1.63-.21.17-.33.38-.44.56-.1.16-.17.29-.46.29h-.05c-.14-.05-.33-.12-.56-.12l-.37.05-.05.02c-.35.1-.62.36-.87.58-.12.12-.24.24-.35.31-.56.33-1.12.63-1.68.91-.78.4-1.54.8-2.54,1.56l-.27.33c-.6.4-1.45.82-2.37,1.28-1.83.91-3.74,1.86-4.48,2.95-.24.37-.32.77-.37,1.17-.06.34-.12.66-.28.91-.1.16-.24.29-.44.41-.27.21-.57.44-.74.88l-.07.98.54-.05c1.2-.12,2.05-.74,2.79-1.28.22-.17.46-.33.67-.47l.13-.16.23.1h.2c1.03,0,1.34-.29,1.69-.64.18-.17.36-.33.68-.52l.82.02c.2,0,.38-.04.65-.18l2.28-2.19.33-.49.1.1.3.03.83.08h.13s.11-.08.11-.08l.89-.73.31.45c.92-.02,1.39-.35,1.86-.67l.34-.24.16-.36v-.19c-.03-.49-.04-.73,0-1.3l-.28-.28c.07-.24.14-.5.15-.95l-.03-.2c.3-.04.55-.12.74-.22l.63-.11c1.33-.03,1.71-.68,2.05-1.26.16-.28.32-.54.57-.76.19-.17.4-.27.64-.38.2-.09.41-.2.63-.34.57-.4,1.1-.89,1.65-1.37.62-.56,1.23-1.12,2.06-1.85-.02-.38-.05-.58-.47-1.05M436.82,484.47c-.22-.08-.53-.14-.81-.14s-.53.06-.82.22l-.38.36-.49.61v.38l-.33.02c-.33.02-.65.12-.92.21-.23.08-.46.15-.65.15l-.48.22c1.04-.93,2.25-1.61,3.53-2.32.45-.24.89-.5,1.34-.76l.28.77c-.19.15-.33.27-.28.29Z"/>
  <path class="st0" d="M423.56,491.49c-.53.03-.58.08-.89.24.06.44-.05.31.27.49.13.1.02.04.23.12.13-.12.24-.17.39-.25v-.6"/>
  <path class="st0" d="M366.58,495.79c-.75,0-1.34.36-1.81.88-.14-.34-.38-.5-.72-.63.12-.41.39-.85.84-1.38v-1.1l-.27-.5-.37.06c-.4.06-.76.21-1.09.41.02-.02.03-.04.03-.05.19-.41.34-.8.49-1.16.24-.64.49-1.24.9-1.86.23-.37.54-.74.86-1.12.33-.4.66-.8.91-1.19.18-.29.31-.57.44-.85.13-.31.24-.59.52-1.04,0-.65-.08-.88-.65-1.43-1.4.2-1.81,1.19-2.21,2.07-.16.39-.33.78-.56,1.12-.1.12-.29.19-.51.27-.26.1-.54.21-.74.42-.19.22-.17.48-.07.82,0,0-1.15.85-1.27,1.11.01,1.33-.66,2.25-1.37,3.25-.45.63-.9,1.27-1.2,2.12l.02.62c-.07.22-.25.42-.46.66-.21.24-.43.5-.56.86l-.06.43v.27c-.56.66-1.61,1.98-2.22,3.37-.15.34-.13.74-.1,1.11.02.31.05.62-.16,1.04-.14.19-.23.32-.29.55l.02,1.23c-.1.25-.35.45-.62.65-.29.21-.58.42-.76.75-.23.46-.14.85-.05,1.17.06.26.12.47.03.72-.26.74-.72,1.42-1.21,2.14-.87,1.27-1.76,2.58-1.74,4.44v.34s.35-.02.35-.02c1.45-.09,1.9-1.21,2.28-2.19.13-.31.24-.63.35-.83l.3-.3.51-.49c.3-.43.53-.9.76-1.37.33-.67.64-1.28,1.18-1.57.11.13.25.3.66.4.14-.04.3-.05.37-.08-.06.11-.23.37-.47.69-.02-.08-.04-.13-.1-.21-.14-.1-.13-.08-.38-.12-.16.18-.33.43-.52.6.05.28.07.31.14.5.43-.07.55-.18.71-.33.02.2.05.38.2.66l.19.38.24-.02c.31-.02.52-.03.69-.14.68-.27.69-.77.71-1.1.01-.24.03-.41.46-.7l.39-.17.04-.02c.64-.48,1.01-1.31,1.33-2.05l.18-.4c.86-1.88,2.13-3.8,3.36-5.67l.56-.87.37-.57c.72-1.06,1.53-2.27,1.74-4-.1-.11-.2-.25-.61-.59M356.84,508.53c.16-.67.44-1.16.75-1.6-.01.03-.01.04-.01.06l.04.56c-.07.12-.57.45-.79.98ZM363.53,498.55c-.27.5-.52.96-.86,1.14l-.42-.08h-.04c-.07,0-.16,0-.22.06.16-.86.68-1.72.97-1.96.02.12.06.28.18.44l.14.33.24-.08c.05-.02.1-.03.15-.05-.05.07-.08.14-.13.21Z"/>
</svg>