<?xml version="1.0" encoding="UTF-8"?>
<svg id="Capa_1" xmlns="http://www.w3.org/2000/svg" version="1.1" viewBox="0 0 800 800">
  <!-- Generator: Adobe Illustrator 29.3.1, SVG Export Plug-In . SVG Version: 2.1.0 Build 151)  -->
  <defs>
    <style>
      .st0 {
        fill: #ededed;
      }
    </style>
  </defs>
  <g>
    <path class="st0" d="M154.74,407.65v1.68l38.4,14.97c.08-.24.16-.48.24-.72l-.26.65c.15-.38.28-.75.42-1.12.12-.34.24-.67.33-1.02.03-.08.07-.17.1-.27.11-.37.21-.73.31-1.1,2.6-10.06-4.56-15.1-7.85-16.43l-10.62-4.11,21.08-7.19c-.58-5.89-1.85-11.55-3.73-16.95l-20.66,8.09c-5.82,1.97-17.77,8.05-17.77,23.53Z"/>
    <path class="st0" d="M100.07,400.05c0-13.44,10.87-24.32,24.27-24.32s24.28,10.88,24.28,24.32-10.86,24.32-24.28,24.32-24.27-10.88-24.27-24.32Z"/>
    <path class="st0" d="M140.41,427.11l-1.18,1.18,16.54,37.68c.22-.11.45-.23.68-.34l-.63.27c.37-.16.73-.33,1.08-.49.32-.16.64-.31.96-.48.08-.04.17-.07.25-.12.33-.18.67-.37,1-.56,8.92-5.25,7.41-13.87,6.03-17.13l-5.12-11.12,20.44,10.55c3.73-4.56,6.83-9.45,9.3-14.58l-20.25-8.89c-5.48-2.72-18.19-6.87-29.08,4.04Z"/>
    <path class="st0" d="M107.54,373.02l1.18-1.18-16.46-37.5c-.22.11-.45.23-.68.34l.63-.27c-.37.16-.72.33-1.07.49-.32.16-.64.31-.95.48-.08.04-.17.07-.25.12-.33.18-.67.36-.99.56-8.87,5.23-7.37,13.8-6,17.05l5.03,10.51-20.28-9.94c-3.71,4.54-6.8,9.41-9.25,14.51l20.16,8.85c5.46,2.71,18.11,6.84,28.95-4.02Z"/>
    <path class="st0" d="M151.17,383.78l1.19,1.19,37.71-16.62c-.11-.23-.23-.45-.34-.68l.27.64c-.16-.37-.33-.73-.49-1.08-.16-.32-.31-.64-.48-.96-.04-.08-.07-.17-.12-.26-.18-.33-.37-.67-.56-1-5.26-8.96-13.88-7.44-17.15-6.05l-11.03,5.23,10.46-20.62c-4.57-3.75-9.46-6.86-14.59-9.34l-8.9,20.35c-2.72,5.51-6.88,18.28,4.04,29.21Z"/>
    <path class="st0" d="M97.12,416.45l-1.18-1.18-37.54,16.55c.11.23.23.45.34.68l-.27-.63c.16.37.33.73.49,1.08.16.32.31.64.48.96.04.08.07.17.12.25.18.33.37.67.56,1,5.24,8.92,13.82,7.41,17.07,6.03l10.44-4.73-9.87,20.06c4.55,3.73,9.42,6.83,14.53,9.3l8.86-20.26c3.08-5.87,6.85-18.2-4.02-29.09Z"/>
    <path class="st0" d="M93.32,392.46v-1.67l-38.14-14.87c-.08.24-.16.48-.24.72l.25-.64c-.15.38-.28.74-.41,1.11-.12.34-.24.67-.33,1.01-.03.08-.07.17-.09.26-.11.36-.21.73-.31,1.1-2.59,9.99,4.53,15,7.8,16.32l11.07,3.97-21.46,7.25c.58,5.85,1.84,11.48,3.7,16.83l20.51-8.03c7.9-2.44,17.63-9.18,17.65-23.37Z"/>
    <path class="st0" d="M131.83,369.31h1.67l14.89-38.34c-.24-.08-.48-.16-.72-.24l.64.26c-.38-.15-.75-.28-1.11-.42-.34-.12-.67-.24-1.02-.33-.08-.03-.17-.07-.26-.09-.36-.11-.73-.21-1.1-.31-10.01-2.6-15.02,4.56-16.34,7.84l-3.96,11.06-7.27-21.5c-5.86.58-11.49,1.85-16.85,3.72l8.04,20.62c3.26,9.25,10.14,17.72,23.4,17.74Z"/>
    <path class="st0" d="M116.62,430.71h-1.67l-14.88,38.33c.24.08.48.16.72.24l-.64-.26c.38.15.75.28,1.11.42.34.12.67.24,1.02.33.08.03.17.06.26.09.36.11.73.21,1.1.31,10,2.6,15.01-4.55,16.34-7.84l4.19-11.36,7.04,21.8c5.85-.58,11.49-1.84,16.85-3.72l-8.04-20.61c-2.45-7.66-8.79-17.73-23.39-17.73Z"/>
  </g>
  <g>
    <path class="st0" d="M235.43,451.55h-2.66v4.78h-3.5v-15.92h6.49c3.79,0,6.08,2.25,6.08,5.51v.05c0,3.69-2.86,5.6-6.43,5.6ZM238.31,445.98c0-1.57-1.09-2.41-2.84-2.41h-2.7v4.87h2.77c1.75,0,2.77-1.05,2.77-2.41v-.05Z"/>
    <path class="st0" d="M256.36,456.33l-3.41-5.09h-2.75v5.09h-3.5v-15.92h7.26c3.75,0,5.99,1.98,5.99,5.26v.05c0,2.57-1.38,4.19-3.41,4.94l3.88,5.69h-4.09ZM256.43,445.84c0-1.5-1.04-2.27-2.75-2.27h-3.47v4.57h3.54c1.7,0,2.68-.91,2.68-2.25v-.05Z"/>
    <path class="st0" d="M273.12,456.6c-4.9,0-8.42-3.66-8.42-8.19v-.05c0-4.53,3.57-8.24,8.47-8.24s8.42,3.66,8.42,8.19v.05c0,4.53-3.56,8.23-8.47,8.23ZM277.93,448.37c0-2.73-2-5.01-4.81-5.01s-4.77,2.23-4.77,4.96v.05c0,2.73,2,5,4.81,5s4.77-2.23,4.77-4.96v-.05Z"/>
    <path class="st0" d="M293.17,456.33h-6.2v-15.92h6.2c4.99,0,8.45,3.44,8.45,7.92v.05c0,4.48-3.45,7.96-8.45,7.96ZM297.96,448.37c0-2.82-1.93-4.8-4.79-4.8h-2.7v9.6h2.7c2.86,0,4.79-1.93,4.79-4.75v-.05Z"/>
    <path class="st0" d="M313.63,456.58c-4.27,0-6.88-2.39-6.88-7.07v-9.1h3.5v9.01c0,2.59,1.29,3.94,3.43,3.94s3.43-1.3,3.43-3.82v-9.12h3.5v8.99c0,4.82-2.7,7.19-6.97,7.19Z"/>
    <path class="st0" d="M333.88,456.6c-4.68,0-8.15-3.62-8.15-8.19v-.05c0-4.53,3.41-8.24,8.29-8.24,3,0,4.79,1,6.27,2.46l-2.22,2.57c-1.23-1.11-2.47-1.8-4.06-1.8-2.68,0-4.61,2.23-4.61,4.96v.05c0,2.73,1.88,5,4.61,5,1.82,0,2.93-.73,4.18-1.87l2.22,2.25c-1.63,1.75-3.45,2.84-6.52,2.84Z"/>
    <path class="st0" d="M352.66,443.64v12.69h-3.5v-12.69h-4.84v-3.23h13.17v3.23h-4.84Z"/>
    <path class="st0" d="M369.49,456.6c-4.9,0-8.42-3.66-8.42-8.19v-.05c0-4.53,3.57-8.24,8.47-8.24s8.42,3.66,8.42,8.19v.05c0,4.53-3.56,8.23-8.47,8.23ZM374.3,448.37c0-2.73-2-5.01-4.81-5.01s-4.77,2.23-4.77,4.96v.05c0,2.73,2,5,4.81,5s4.77-2.23,4.77-4.96v-.05Z"/>
    <path class="st0" d="M392.99,456.33l-3.41-5.09h-2.75v5.09h-3.5v-15.92h7.26c3.75,0,5.99,1.98,5.99,5.26v.05c0,2.57-1.38,4.19-3.4,4.94l3.88,5.69h-4.09ZM393.06,445.84c0-1.5-1.04-2.27-2.75-2.27h-3.47v4.57h3.54c1.7,0,2.68-.91,2.68-2.25v-.05Z"/>
    <path class="st0" d="M402.03,456.33v-15.92h11.99v3.12h-8.51v3.23h7.49v3.12h-7.49v3.34h8.63v3.12h-12.1Z"/>
    <path class="st0" d="M425.17,456.56c-2.41,0-4.84-.84-6.74-2.55l2.07-2.48c1.43,1.18,2.93,1.93,4.75,1.93,1.43,0,2.29-.57,2.29-1.5v-.05c0-.89-.54-1.34-3.2-2.03-3.2-.82-5.27-1.71-5.27-4.87v-.05c0-2.89,2.32-4.8,5.56-4.8,2.32,0,4.29.73,5.9,2.02l-1.82,2.64c-1.41-.98-2.79-1.57-4.13-1.57s-2.04.61-2.04,1.39v.05c0,1.05.68,1.39,3.43,2.09,3.23.84,5.04,2,5.04,4.78v.05c0,3.16-2.41,4.94-5.84,4.94Z"/>
    <path class="st0" d="M451.6,456.33h-6.2v-15.92h6.2c4.99,0,8.45,3.44,8.45,7.92v.05c0,4.48-3.45,7.96-8.45,7.96ZM456.39,448.37c0-2.82-1.93-4.8-4.79-4.8h-2.7v9.6h2.7c2.86,0,4.79-1.93,4.79-4.75v-.05Z"/>
    <path class="st0" d="M465.43,456.33v-15.92h11.99v3.12h-8.51v3.23h7.49v3.12h-7.49v3.34h8.63v3.12h-12.1Z"/>
    <path class="st0" d="M482.91,456.33v-15.92h3.5v12.74h7.92v3.18h-11.42Z"/>
    <path class="st0" d="M516.47,456.44h-3.09l-6.42-16.04h3.86l4.15,11.21,4.15-11.21h3.77l-6.42,16.04Z"/>
    <path class="st0" d="M527.78,456.33v-15.92h3.5v15.92h-3.5Z"/>
    <path class="st0" d="M548.67,456.33l-7.7-10.12v10.12h-3.45v-15.92h3.22l7.45,9.8v-9.8h3.45v15.92h-2.97Z"/>
    <path class="st0" d="M565.45,456.6c-4.9,0-8.42-3.66-8.42-8.19v-.05c0-4.53,3.56-8.24,8.47-8.24s8.42,3.66,8.42,8.19v.05c0,4.53-3.57,8.23-8.47,8.23ZM570.26,448.37c0-2.73-2-5.01-4.81-5.01s-4.77,2.23-4.77,4.96v.05c0,2.73,2,5,4.81,5s4.77-2.23,4.77-4.96v-.05Z"/>
    <path class="st0" d="M600.22,456.33l-1.45-3.57h-6.72l-1.45,3.57h-3.57l6.81-16.04h3.22l6.81,16.04h-3.65ZM595.4,444.5l-2.11,5.16h4.22l-2.11-5.16Z"/>
    <path class="st0" d="M618.24,456.33l-3.4-5.09h-2.75v5.09h-3.5v-15.92h7.27c3.75,0,5.99,1.98,5.99,5.26v.05c0,2.57-1.38,4.19-3.41,4.94l3.88,5.69h-4.09ZM618.31,445.84c0-1.5-1.04-2.27-2.75-2.27h-3.47v4.57h3.54c1.7,0,2.68-.91,2.68-2.25v-.05Z"/>
    <path class="st0" d="M634.93,456.6c-4.95,0-8.35-3.48-8.35-8.19v-.05c0-4.53,3.52-8.24,8.33-8.24,2.86,0,4.59.77,6.24,2.18l-2.2,2.66c-1.23-1.03-2.32-1.62-4.15-1.62-2.54,0-4.56,2.25-4.56,4.96v.05c0,2.91,2,5.05,4.81,5.05,1.27,0,2.41-.32,3.29-.95v-2.28h-3.52v-3.03h6.9v6.92c-1.63,1.39-3.88,2.52-6.79,2.52Z"/>
    <path class="st0" d="M647.36,456.33v-15.92h11.99v3.12h-8.51v3.23h7.49v3.12h-7.49v3.34h8.63v3.12h-12.1Z"/>
    <path class="st0" d="M675.99,456.33l-7.7-10.12v10.12h-3.45v-15.92h3.22l7.45,9.8v-9.8h3.45v15.92h-2.97Z"/>
    <path class="st0" d="M692.25,443.64v12.69h-3.5v-12.69h-4.84v-3.23h13.17v3.23h-4.84Z"/>
    <path class="st0" d="M702.19,456.33v-15.92h3.5v15.92h-3.5Z"/>
    <path class="st0" d="M723.08,456.33l-7.7-10.12v10.12h-3.45v-15.92h3.22l7.45,9.8v-9.8h3.45v15.92h-2.97Z"/>
    <path class="st0" d="M739.86,456.6c-4.9,0-8.42-3.66-8.42-8.19v-.05c0-4.53,3.56-8.24,8.47-8.24s8.42,3.66,8.42,8.19v.05c0,4.53-3.57,8.23-8.47,8.23ZM744.68,448.37c0-2.73-2-5.01-4.81-5.01s-4.77,2.23-4.77,4.96v.05c0,2.73,2,5,4.81,5s4.77-2.23,4.77-4.96v-.05Z"/>
  </g>
  <g>
    <path class="st0" d="M229.28,359.61h48.79v14.71h-32.05v10.29h28.62v13.91h-28.62v21.62h-16.74v-60.53Z"/>
    <path class="st0" d="M294.17,359.61h48.64v14.28h-32.07v9.16h28.23v13.24h-28.23v9.59h32.1v14.27h-48.67v-60.53Z"/>
    <path class="st0" d="M359.22,390.05v-.17c0-17.64,13.5-31.48,31.74-31.48,12.31,0,20.22,5.2,25.56,12.62l-12.56,9.77c-3.44-4.32-7.41-7.09-13.17-7.09-8.44,0-14.37,7.18-14.37,16v.18c0,9.07,5.93,16.16,14.37,16.16,6.28,0,9.98-2.93,13.6-7.34l12.56,8.99c-5.67,7.86-13.33,13.66-26.66,13.66-17.21,0-31.06-13.22-31.06-31.3Z"/>
    <path class="st0" d="M432.95,390.05v-.17c0-17.38,13.45-31.48,31.41-31.48s31.25,13.92,31.25,31.3v.18c0,17.38-13.47,31.47-31.42,31.47s-31.25-13.92-31.25-31.3ZM479.15,390.05v-.17c0-8.74-6.07-16.35-14.95-16.35s-14.71,7.44-14.71,16.18v.18c0,8.73,6.08,16.34,14.87,16.34s14.79-7.44,14.79-16.17Z"/>
    <path class="st0" d="M586.21,359.61h16.84v60.53h-16.84v-60.53Z"/>
    <path class="st0" d="M642.54,374.31h-18.12v-14.71h52.98v14.71h-18.12v45.82h-16.74v-45.82Z"/>
    <path class="st0" d="M546.04,420.43l23.94-60.73c-.44-.03-.86-.03-1.3-.04l-4.28-.05c-10.54,0-14.97,6.73-17.01,11.61l-1.34,3.27v.02s-.01,0-.01,0l-8.2,23.41-13.87-38.3h-18.92l19.64,47.31c1.93,3.93,9.69,13.22,21.35,13.51Z"/>
    <path class="st0" d="M724.6,359.61l23.94,60.73c-.44.03-.86.03-1.3.04l-4.28.05c-10.54,0-14.97-6.73-17.01-11.61l-1.34-3.27v-.02s-.01,0-.01,0l-8.2-23.41-13.87,38.3h-18.92l19.64-47.31c1.93-3.93,9.69-13.22,21.35-13.51Z"/>
  </g>
</svg>