<?xml version="1.0" encoding="UTF-8"?>
<svg id="Capa_1" xmlns="http://www.w3.org/2000/svg" version="1.1" viewBox="0 0 800 800">
  <!-- Generator: Adobe Illustrator 29.3.1, SVG Export Plug-In . SVG Version: 2.1.0 Build 151)  -->
  <defs>
    <style>
      .st0 {
        fill: #ededed;
      }
    </style>
  </defs>
  <path class="st0" d="M211.77,452.17v-1.66s0-.83.56-.83h-12.75v2.49l-13.28,29.08c-.56,2.2-.56,2.75-2.22,4.72h12.46c-1.11-1.14-1.66-1.97-1.66-3.63,0-.55.55-1.92.55-2.49l.57-1.65h18.82l1.1,1.65v2.49c0,1.65,0,2.49-1.1,3.63h11.9c-1.67-3.06-2.5-4.18-3.6-6.12l-11.34-27.68ZM205.68,471.54h-6.66l6.66-15.77v-.54l6.64,16.31h-6.64Z"/>
  <path class="st0" d="M273.77,479.84l-2.5-2.19c-1.11-3.06-1.94-4.46-2.49-4.46-.56-.55-1.1-1.08-1.1-1.65-.55,0-1.11-.55-1.94-.55,5.53-1.37,8.58-4.96,8.58-11.05,0-4.71-3.04-8.32-7.19-9.43-2.49-.83-5.54-.83-9.13-.83h-19.12c2.23,1.4,3.6,3.03,3.6,7.48v21.58c0,3.05-.83,4.17-1.38,6.09-.55,0-.55.57-1.66,1.14h13.28c-1.39-1.14-1.93-1.97-2.49-3.63v-10.23h3.6c1.11,0,3.05.54,4.16,1.08,1.94,1.4,3.59,2.51,5.53,5.54.55,1.69,1.11,3.6,1.11,4.71q0,1.38-.56,2.52h13.85c-2.5-1.14-2.5-1.97-4.16-6.12ZM259.93,466.03h-9.7v-10.26h10.25c.56.57,1.11.57,1.11.57,1.39,0,2.49.82,3.05.82,1.1.55,1.93,2.21,1.93,4.15,0,2.49-2.49,4.72-6.64,4.72Z"/>
  <path class="st0" d="M308.1,466.56l-1.94,5.54c.55-.57,1.11-.57,1.94-1.12h10.24v1.65c0,3.06-1.39,5.01-2.49,5.54-1.11,1.65-3.6,1.65-6.65,1.65-7.19,0-10.8-3.6-10.8-11.33,0-8.58,4.15-13.29,11.91-13.29,4.43,0,9.14,1.93,11.62,4.14l2.23-9.69c-.56,0-1.12.83-1.68.83s-1.1-.83-2.49-.83h-4.14c-2.49-.55-4.15-.55-5.54-.55-5.82,0-10.8,1.38-13.85,4.43-4.7,3.6-7.19,8.86-7.19,14.95,0,11.33,8.03,17.99,19.36,17.99,2.51,0,4.17,0,7.21-.54,1.1-.57,2.49-.57,3.6-1.14,2.49,0,2.49-.83,3.59-.83.57,0,1.12.83,2.5.83v-17.43c0-1.37.56-1.94.56-3.03h-15.79c-1.68,0-2.21.54-2.21,2.2Z"/>
  <path class="st0" d="M378.96,475.13c-2.23,2.52-4.15,3.06-6.64,4.18-2.23.53-4.72.53-7.2.53h-12.45v-8.85h11.89c1.94,0,3.04-1.37,3.6-2.48l3.04-4.72c-1.1,0-2.49.57-4.15.57h-14.38v-8.6h12.45c2.49,0,4.14.57,6.08,1.39,1.12,0,1.94,0,3.05.55,1.1.55,1.67.55,3.04,1.66l-1.94-7.2-.54-.55c0-1.11.54-1.11,1.1-1.94h-33.5c1.13,1.4,1.66,2.49,2.23,3.89v25.75c0,3.6-.56,5.51-3.06,6.65h35.16c-1.39-.57-1.39-1.14-1.39-1.14,0,0,0-.83.57-1.38l3.04-8.32Z"/>
  <path class="st0" d="M420.5,453.56c.55,1.09.55,2.2.55,3.6v18.55c0,1.11.82,1.95.82,4.14l-12.74-27.68-.56-.55v-1.11s0-.83.56-.83h-16.31c1.37,1.4,2.46,2.49,2.46,3.89v25.17c0,3.05,0,4.17-.55,6.09-.55,0-1.38.57-1.92,1.14h12.72c-1.93-1.14-2.49-1.97-2.49-3.63-.56-.55-.56-2.49-.56-3.6v-23.51l13.3,28.77v.83h.55q0,.57-.55,1.14h13.3c-.55-.57-1.39-1.14-1.39-1.97v-26.84c0-2.5.84-4.99,1.93-5.54,0-1.11.57-1.11,1.66-1.94h-13.02c1.66.83,2.23,2.49,2.23,3.89Z"/>
  <path class="st0" d="M477.24,452.17v-1.09c0-.57.55-.57.55-1.4h-31.83q.54.83.54,1.4v1.09l-2.49,7.2c3.06-2.21,7.19-3.6,12.73-3.6h1.11v21.89c0,2.19,0,3.6-.55,4.69,0,1.11-1.09,2.49-2.49,3.63h13.82c-.54-1.14-1.09-1.14-1.65-1.97,0-.55-.55-1.08-.55-1.65,0-1.09-.82-2.49-.82-4.69v-21.89h1.93c1.09,0,1.66,0,3.58.57,1.97,0,3.06.82,4.17.82,1.38.55,2.5,1.09,4.99,2.21l-2.49-7.2h-.55Z"/>
  <path class="st0" d="M503.51,457.16c0-2.5,0-4.99,1.41-5.54q.54-1.11,1.65-1.94h-13.84c1.38.83,2.5,2.49,3.04,3.89v25.17c0,3.05-.54,4.17-1.09,6.09-.57,0-.57.57-1.95,1.14h13.84c-1.11-1.14-2.2-1.97-3.06-3.63v-25.18Z"/>
  <path class="st0" d="M551.16,453.56v22.14c0,1.11,0,1.95.54,4.14l-13-27.68v-.55c0-.54-.84-.54-.84-1.11l.84-.83h-15.79c1.11,1.4,1.95,2.49,2.49,3.89,0,1.09.57,2.2.57,3.6v21.58c0,3.05-.57,4.17-1.95,6.09,0,0,0,.57-1.11,1.14h12.73c-1.91-1.14-2.49-1.97-2.49-3.63v-20.49l-.55-3.02v-3.59l13.84,28.77v.83h.55c0,.57-.55.57-.55,1.14h12.48c-.57-.57-.57-1.14-.57-1.97v-26.84c0-2.5,0-4.99.57-5.54q1.36-1.11,1.91-1.94h-12.73c1.38.83,2.47,2.49,3.06,3.89Z"/>
  <path class="st0" d="M601.8,452.17v-2.49h-12.75l.57.83c0,.57-.57.57-.57.57v1.09l-12.45,29.08c-1.38,2.2-1.93,2.75-2.49,4.72h11.89c-1.09-1.14-1.65-1.97-1.65-3.63,0-.55.55-1.92,1.09-2.49l.55-1.65h18.28l.55,1.65c.55,1.4.55,2.49.55,2.49,0,1.65,0,2.49-1.11,3.63h11.89c-1.65-3.06-2.47-4.18-3.04-6.12l-11.34-27.68ZM595.17,471.54h-7.21l7.21-15.77v-.54l6.64,16.31h-6.64Z"/>
  <path class="st0" d="M118.74,317.36c-7.75,0-75.56,4.71-81.65-3.86h-1.67c-9.97,17.72-10.79,23.24-10.79,23.24v2.23c6.09-1.4,4.7-6.95,28.78-13.86h11.63v68.37c0,13.28-3.89,12.46-12.46,18.83v2.23c6.09,2.49,7.76-1.4,14.68.83h18.81v-90.26h7.77c3.88.82,9.4.82,11.62,1.4,5.53,2.48,8.58,10.23,11.07,10.23.55,0,5.25-6.09,13.83-16.32,0-.84-11.63-3.06-11.63-3.06Z"/>
  <path class="st0" d="M214.52,417.02c.84,0,5.27,0,9.41-2.49,0-3.06-6.37,0-15.77-16.34-5.27-8.57-12.46-21.03-12.46-21.03,0-3.89,18.81-6.11,18.81-24.09,0-14.66-14.11-25.75-29.62-25.75h-46.78v2.49c0,4.71,10.24,2.2,11.08,15.51v52.86c-.84,10.8-9.42,12.46-9.42,15.52,0,0-1.65,0,0,2.48h27.14v-2.48c-1.38-5.27,0-19.38-1.38-23.26v-13.28h2.21c3.88,1.65,10.78,2.48,10.78,2.48.84,0,1.65,1.37,2.5,3.88.83,2.21,3.04,5.26,5.53,9.95,7.76,13.28,9.15,25.74,27.96,23.54ZM177.99,371.9c-11.92,0-11.92-6.37-11.92-17.17v-11.05c0-4.71,2.51-9.97,7.22-9.97,3.03,0,5.24,0,7.74,1.37,8.57,3.34,15.5,11.06,15.5,18.83,0,4.71-3.05,16.34-15.5,18h-3.04Z"/>
  <path class="st0" d="M314.74,373.27c-.55-.83-15.5-38.2-16.89-45.94h-25.74c2.21,7.2,6.92,5.54,6.92,8.58,0,3.89-3.04,4.71-17.15,38.2-8.58,21.06-15.5,34.88-19.39,34.88-2.22,0-5.53,3.32-7.75,3.32v3.88h21.88c-1.67-10.25,7.74-24.91,9.13-24.91h36.81c13.85,22.43-1.65,24.09,28.79,24.09,5.27,0,.56,1.65,7.75-.83v-1.4c-4.71-3.31-10.24,3.89-24.35-39.85ZM298.4,381.85h-30.18v-.84l14.69-33.49,1.65-2.2,13.83,35.68v.84Z"/>
  <path class="st0" d="M349.05,414.53c3.89,2.49,24.09,1.65,27.97,1.65,2.49-14.97-.56,1.38.83-33.51,3.87,2.23,11.05,3.89,14.96,3.89h.54c16.61,0,31.29-11.63,31.29-29.63,0-23.23-21.88-31-31.83-30.43-.84,0-2.5,0-3.33.83h-39.59c.83,6.37,10.8,5.54,10.8,16.35v47.6c0,17.71-9.97,19.38-11.65,23.26ZM379.51,333.7c0-.83,3.04,0,5.53,0,2.22,0,5.27,0,7.77.83,9.13,3.89,14.66,13.83,14.66,23.25s-4.71,19.38-14.66,21.03h-3.91c-8.56,0-11.05-6.37-11.05-12.46,0-22.68,1.65-32.66,1.65-32.66Z"/>
  <path class="st0" d="M467.55,377.16c0-5.26.55-34.89.55-49.83h-27.13v3.31c2.2,2.23,4.7,3.06,6.1,5.26,2.49,3.89.82,7.77.82,9.43v55.35c0,11.62-8.58,8.31-8.58,12.45v2.23h21.87c8.58,0,6.37-22.71,6.37-38.2Z"/>
  <path class="st0" d="M538.98,404.56c-29.65,0-35.71-26.57-35.71-36,0-21.57,14.09-35.69,26.57-35.69,18.53,0,24.63,17.97,33.21,20.2h2.49v-1.66c-1.66-5.29-3.02-13.86-6.35-23.26-6.1,3.06-3.88,4.72-6.1,4.72-1.68,0-16.34-6.37-24.93-6.37-19.39,0-43.73,20.49-43.73,45.94s22.7,43.74,47.61,43.74,37.36-18.83,37.36-19.37v-1.65h-2.49c-4.4,3.86-15.51,9.4-27.94,9.4Z"/>
  <path class="st0" d="M668.78,395.97c0-18.81-.81-28.21,0-43.73,0,0,0-16.34,2.23-24.91h-23.82s-3.86-2.22-3.86,2.49c0,3.05,8.3,1.39,8.3,11.62v18h-43.46v-32.11h-27.15v3.31c2.52,2.23,4.72,3.06,6.37,5.26,1.39,3.89.57,7.77.57,9.43-.57,21.02,0,32.66,0,55.35,0,11.62-8.58,8.31-8.58,12.45,0,.58-.55,1.4,0,2.23h21.87c8.58,0,5.54-22.71,6.38-38.2,0-5.26-.84-8.6.54-10.81h42.08c1.38,6.09.54,33.49.54,37.38,0,3.02-1.09,11.62,6.38,11.62h17.71v-2.23c-6.1-8.57-6.1,3.06-6.1-17.16Z"/>
  <path class="st0" d="M773.15,393.48c-2.5,0-14.11,15.51-35.14,15.51h-19.4c-4.67,0-4.67-11.63-4.67-16.88v-24.92h32.64c2.22,3.05,6.92,8.57,8.58,9.14h2.22v-25.48h-2.22c-11.62,11.63-5.53,9.14-16.33,9.14h-23.53c0-13-1.36-6.09,0-26.29h9.42c29.62,0,27.95,9.4,32.1,9.4,0,0,1.38-1.66,12.45-14.12v-1.65h-81.93v3.31c3.31,2.23,9.41,4.43,9.41,16.89v43.74c0,19.38-7.76,18.55-10.23,21.03v3.06h77.24l11.61-18v-3.88h-2.22Z"/>
</svg>