<?xml version="1.0" encoding="UTF-8"?>
<svg id="Capa_1" xmlns="http://www.w3.org/2000/svg" version="1.1" viewBox="0 0 800 800">
  <!-- Generator: Adobe Illustrator 29.3.1, SVG Export Plug-In . SVG Version: 2.1.0 Build 151)  -->
  <defs>
    <style>
      .st0, .st1 {
        fill: #ededed;
      }

      .st1 {
        fill-rule: evenodd;
      }
    </style>
  </defs>
  <polygon class="st1" points="132.1 438.1 132.1 430.15 153.01 430.15 153.01 362.4 96.75 362.4 96.75 430.15 118.25 430.15 118.25 438.1 40.49 438.1 40.49 430.15 60.22 430.15 60.22 292.3 40.49 292.3 40.49 284.34 118.25 284.34 118.25 292.3 96.75 292.3 96.75 353.27 153.01 353.27 153.01 292.3 132.1 292.3 132.1 284.34 208.98 284.34 208.98 292.3 189.24 292.3 189.24 430.15 208.98 430.15 208.98 438.1 132.1 438.1 132.1 438.1"/>
  <path class="st1" d="M238.73,284.34h35.35v18.26h-35.35v-18.26h0ZM221.35,438.1v-7.95h19.15v-94.55h-19.15v-7.66h54.2v102.21h17.67v7.95h-71.87Z"/>
  <polygon class="st1" points="300.59 438.1 300.59 430.15 320.32 430.15 320.32 271.97 300.59 271.97 300.59 264.31 355.67 264.31 355.67 430.15 373.93 430.15 373.93 438.1 300.59 438.1 300.59 438.1"/>
  <path class="st1" d="M429.01,438.1c-19.44,0-29.75-9.43-29.75-23.86v-78.65h-18.85v-7.66h18.85v-43.89c10.6,0,21.8.29,32.99,0v43.89h27.1v7.66h-27.1v94.55h27.69v7.95h-30.93Z"/>
  <path class="st1" d="M592.2,404.82c-3.83,10.31-20.62,35.94-60.97,35.94-44.77,0-67.75-29.16-67.75-58.62,0-40.94,38.59-57.73,67.16-57.73,25.33,0,62.15,14.43,65.1,55.97.59,8.25-.29,17.08-3.53,24.45h0ZM554.2,345.61c-4.71-9.72-12.96-14.14-23.86-14.14-27.69,0-28.28,27.1-28.28,50.37,0,31.22,2.95,36.82,5.3,40.65,3.53,6.19,10.9,12.08,23.27,12.08,27.39,0,27.39-28.28,27.1-53.9-.29-27.98-2.06-31.52-3.53-35.05h0Z"/>
  <path class="st1" d="M690,438.1v-7.95h15.61v-64.8c0-14.73,0-29.16-17.08-29.16-9.72,0-25.63,9.13-29.16,23.86-1.47,4.71-1.18,9.43-1.18,21.8v48.31h17.67v7.95h-71.58v-7.95h18.85v-94.55h-18.85v-7.66h53.9v16.5c5.89-7.07,10.6-12.08,22.09-16.2,8.25-3.53,15.91-4.12,21.21-4.12,2.06,0,8.54,0,15.91,2.06,22.68,6.19,23.56,22.39,23.56,33.87v70.11h18.56v7.95h-69.52Z"/>
  <g>
    <path class="st0" d="M284.09,517.91c-.28-5.41-.59-11.92-.56-17.63h-.19c-1.55,5.14-3.51,10.79-5.53,16.1l-6.88,18.13h-6.59l-6.21-17.89c-1.84-5.38-3.51-11.07-4.74-16.34h-.15c-.2,5.49-.48,12.19-.84,17.89l-1.04,16.84h-7.98l3.12-41.91h11.25l6.11,16.83c1.68,4.95,3.19,9.92,4.31,14.59h.21c1.26-4.57,2.87-9.7,4.68-14.63l6.5-16.8h11.11l2.69,41.91h-8.34l-.91-17.1Z"/>
    <path class="st0" d="M328.26,516.41h-17.66v12.29h19.75v6.3h-28.32v-41.91h27.28v6.3h-18.72v10.78h17.66v6.24Z"/>
    <path class="st0" d="M337.85,535v-41.91h9.79l12.11,17.99c3.08,4.63,5.82,9.49,7.98,14.04l.17-.04c-.61-5.57-.77-10.96-.77-17.37v-14.62h7.92v41.91h-8.87l-12.23-18.43c-2.99-4.6-6.1-9.7-8.4-14.46l-.22.04c.34,5.45.46,10.98.46,17.86v14.99h-7.92Z"/>
    <path class="st0" d="M384.87,493.67c3.82-.56,8.59-.9,13.66-.9,8.79,0,14.79,1.63,19.1,4.84,4.56,3.32,7.34,8.31,7.34,15.42,0,7.51-2.86,13.06-7.3,16.67-4.71,3.78-12.12,5.71-21.23,5.71-4.98,0-8.76-.23-11.58-.55v-41.19ZM393.43,529.16c1.2.19,3.02.21,4.77.21,11.12.05,17.73-5.47,17.73-16.07.04-9.24-5.91-14.57-16.67-14.57-2.68,0-4.6.21-5.84.45v29.99Z"/>
    <path class="st0" d="M474,513.63c0,14.04-9.51,22.06-22.43,22.06s-21.62-9.04-21.62-21.31,9.09-21.96,22.32-21.96,21.73,9.24,21.73,21.21ZM438.99,514.22c0,8.55,4.83,15.35,13.02,15.35s12.95-6.88,12.95-15.65c0-7.91-4.39-15.37-12.93-15.37s-13.04,7.07-13.04,15.68Z"/>
    <path class="st0" d="M478.28,530.76l23.98-31.11v-.21h-21.87v-6.35h32.95v4.5l-23.64,30.84v.21h23.99v6.35h-35.41v-4.24Z"/>
    <path class="st0" d="M530.47,523.16l-4,11.85h-8.85l15.04-41.91h10.9l15.23,41.91h-9.19l-4.24-11.85h-14.89ZM543.94,517.37l-3.7-10.33c-.9-2.6-1.67-5.45-2.38-7.88h-.15c-.68,2.46-1.4,5.36-2.23,7.85l-3.62,10.35h12.08Z"/>
  </g>
</svg>