<?xml version="1.0" encoding="UTF-8"?>
<svg id="Capa_1" xmlns="http://www.w3.org/2000/svg" version="1.1" viewBox="0 0 800 800">
  <!-- Generator: Adobe Illustrator 29.3.1, SVG Export Plug-In . SVG Version: 2.1.0 Build 151)  -->
  <defs>
    <style>
      .st0 {
        fill: #ededed;
      }
    </style>
  </defs>
  <path class="st0" d="M775.37,312.16v88.44l-67.39-69.56v67.56h-9.22v-88.44l67.39,69.56v-67.56h9.22ZM624.67,310.52c-26.25,0-46.05,19.31-46.05,44.92s19.8,44.92,46.05,44.92,46.06-19.31,46.06-44.92-19.8-44.92-46.06-44.92M624.67,392.69c-21.41,0-37.56-16.01-37.56-37.25s16.15-37.25,37.56-37.25,37.44,16.02,37.44,37.25-16.09,37.25-37.44,37.25M498.13,312.16h61.59v7.67h-26.19v78.76h-9.22v-78.76h-26.18v-7.67ZM86.3,376.98c0,14.2-11.54,23.37-29.42,23.37-15.21,0-26.92-7.27-32.25-19.98l7.85-3.32c4.36,9.94,13.26,15.63,24.54,15.63,12.37,0,20.06-5.97,20.06-15.57,0-10.66-7.83-14.43-21.67-20.17-14.58-6.04-24.91-11.35-24.91-24.69,0-12.59,11.1-21.73,26.38-21.73,11.08,0,19.54,4.51,25.14,13.4l-7.61,3.96c-3.99-6.61-9.63-9.69-17.67-9.69-9.55,0-17.03,6.07-17.03,13.81,0,9.54,9.35,13.3,20.17,17.66,17.9,7.16,26.41,13.08,26.41,27.33M182.93,312.16h9.22v86.43h-9.22v-34.75h-54.87v34.75h-9.22v-86.43h9.22l.06,44h54.78l.02-44ZM239.83,390.92h44.52v7.67h-53.73v-86.43h52.77v7.67h-43.55v36.33h38.71v7.67h-38.71v27.08ZM359.26,362.26l22.93,36.33h-10.49l-21.41-34.42-.36-.36h-15.33l2.55-7.67h11.65c11.35,0,19.92-7.94,19.92-18.47s-8.26-17.85-19.23-17.85h-22.4v78.76h-9.22v-86.43h32.03c15.72,0,28.04,11.2,28.04,25.51,0,10.95-7,20.48-17.84,24.3l-.83.29ZM444.99,310.06l-42.24,88.53h9.62l12.32-26.01h40.41l11.72,24.96.5,1.05h10.04l-42.38-88.53ZM428.34,364.89l16.52-35.44,16.64,35.44h-33.16Z"/>
  <polygon class="st0" points="185.22 444.49 206.12 474.19 227.08 444.49 227.08 489.01 222.24 489.01 222.24 458.69 206.12 481.75 190.06 458.69 190.06 489.01 185.22 489.01 185.22 444.49"/>
  <path class="st0" d="M236.56,473.51c0-10.11,6.69-16.68,15.62-16.68s14.39,6.95,14.39,15.56c0,0,0,1.05-.06,1.99h-25.36c.25,6.88,4.59,11.29,11.16,11.29,4.53,0,7.01-1.62,9.61-4.34l3.04,2.97c-3.91,4.34-8.12,5.52-12.65,5.52-9.3,0-15.74-6.33-15.74-16.06v-.24ZM261.67,470.34c0-5.02-4.22-9.24-9.49-9.24-5.7,0-10.42,4.16-10.73,9.24h20.21Z"/>
  <path class="st0" d="M274,457.76h4.59v5.27c1.61-3.34,5.15-5.76,10.04-5.76,7.19,0,11.6,4.77,11.6,11.78v19.97h-4.59v-18.97c0-5.21-3.1-8.49-8.19-8.49s-8.87,3.53-8.87,8.8v18.67h-4.59v-31.25Z"/>
  <path class="st0" d="M323.31,456.83c6.14,0,9.55,2.91,11.1,5.58v-16.61h4.59v43.22h-4.59v-4.66c-1.55,2.67-4.96,5.59-11.1,5.59-8.75,0-15.81-7.01-15.81-16.56s7.06-16.56,15.81-16.56M323.31,485.66c6.69,0,11.66-5.27,11.66-12.28s-4.96-12.28-11.66-12.28-11.23,5.27-11.23,12.28,4.77,12.28,11.23,12.28"/>
  <path class="st0" d="M363.14,456.83c9.18,0,16.62,7.01,16.62,16.56s-7.44,16.56-16.62,16.56-16.62-7.01-16.62-16.56,7.44-16.56,16.62-16.56M363.14,485.66c6.95,0,12.03-5.27,12.03-12.28s-5.08-12.28-12.03-12.28-12.03,5.27-12.03,12.28,5.09,12.28,12.03,12.28"/>
  <polygon class="st0" points="401.94 462.04 384.45 462.04 384.45 457.76 410.49 457.76 389.6 484.73 409.62 484.73 409.62 489.01 381.11 489.01 401.94 462.04"/>
  <path class="st0" d="M415.34,480.89c0-5.96,4.09-9.18,12.96-10.42,7.25-.99,8.37-1.24,8.37-3.78v-.62c0-2.23-1.86-4.96-7.07-4.96-3.85,0-6.76,1.61-8.99,4.71l-3.34-2.6c2.67-4.15,7.07-6.39,12.46-6.39,7.75,0,11.53,3.59,11.53,9.73v16.68c0,2.36,1.3,2.42,2.6,2.42h.56v3.28c-.86.56-2.17.68-3.16.68-1.8,0-2.92-1.05-3.29-1.68-.38-.62-.56-1.17-.68-1.98-2.11,2.91-6.51,3.97-11.04,3.97-6.95,0-10.91-3.48-10.91-9.05M436.66,478.47v-5.7c-.93.75-3.35,1.3-8.12,1.98-5.89.81-8.62,2.73-8.62,6.02,0,3.1,2.48,4.9,6.82,4.9,6.39,0,9.92-2.86,9.92-7.2"/>
  <polygon class="st0" points="469.99 445.79 474.82 445.79 474.82 463.84 498.82 463.84 498.82 445.79 503.66 445.79 503.66 489.01 498.82 489.01 498.82 468.3 474.82 468.3 474.82 489.01 469.99 489.01 469.99 445.79"/>
  <path class="st0" d="M529.61,456.83c9.18,0,16.62,7.01,16.62,16.56s-7.44,16.56-16.62,16.56-16.62-7.01-16.62-16.56,7.44-16.56,16.62-16.56M529.61,485.66c6.95,0,12.03-5.27,12.03-12.28s-5.08-12.28-12.03-12.28-12.03,5.27-12.03,12.28,5.08,12.28,12.03,12.28"/>
  <path class="st0" d="M554.71,462.04h-3.66v-4.28h3.66v-11.97h4.59v11.97h7.25v4.28h-7.25v18.23c0,4.03,1.36,5.4,4.34,5.4.87,0,1.74,0,2.92-.19v4.15c-1.06.25-1.8.31-2.86.31-3.78,0-8.99-.99-8.99-9.67v-18.23Z"/>
  <path class="st0" d="M570.58,473.51c0-10.11,6.69-16.68,15.63-16.68s14.38,6.95,14.38,15.56c0,0,0,1.05-.06,1.99h-25.36c.25,6.88,4.59,11.29,11.16,11.29,4.53,0,7.01-1.62,9.62-4.34l3.04,2.97c-3.91,4.34-8.12,5.52-12.65,5.52-9.3,0-15.74-6.33-15.74-16.06v-.24ZM595.69,470.34c0-5.02-4.22-9.24-9.48-9.24-5.71,0-10.42,4.16-10.73,9.24h20.21Z"/>
  <path class="st0" d="M607.95,445.79h4.58v35.03c0,3.42.99,4.84,3.91,4.84.74,0,1.55-.06,2.23-.25v4.28c-.75.19-1.49.25-2.23.25-3.35,0-8.49-.75-8.49-8.81v-35.34Z"/>
</svg>