<?xml version="1.0" encoding="UTF-8"?>
<svg id="Capa_1" xmlns="http://www.w3.org/2000/svg" version="1.1" xmlns:xlink="http://www.w3.org/1999/xlink" viewBox="0 0 800 800">
  <!-- Generator: Adobe Illustrator 29.3.1, SVG Export Plug-In . SVG Version: 2.1.0 Build 151)  -->
  <defs>
    <style>
      .st0 {
        fill: #ededed;
      }

      .st1 {
        clip-path: url(#clippath);
      }
    </style>
    <clipPath id="clippath">
      <path class="st0" d="M438.16,451.62c0-9.59,22.57-29.63,59.13-41.21.1.65.16,1.33.16,2.04,0,26.32-33.34,43.9-51.93,43.9-4.64,0-7.36-1.43-7.36-4.74M676.08,425.65c0-7.17,8.59-23.14,14.87-23.14,3.14,0,7.71,1.07,7.71,1.07-1.25,10.25-12.47,25.49-20.3,25.49-1.18,0-2.28-1.58-2.28-3.43M226.8,424.97c0-8.4,14.2-22.94,19.72-22.94,3.18,0,6.47,1.79,6.47,3.73,0,3.27-16.06,21.73-24.36,21.73-1.18,0-1.83-.67-1.83-2.52M351.01,424.97c0-8.4,14.2-22.94,19.72-22.94,3.17,0,6.39,1.79,6.39,3.73,0,3.27-15.98,21.73-24.28,21.73-1.18,0-1.83-.67-1.83-2.52M523.6,424.74c0-8.4,12.27-22.94,19.96-22.94,3.33,0,5.65,1.83,5.65,4.22,0,3.95-15.48,21.24-23.78,21.24-1.18,0-1.83-.67-1.83-2.52M616.92,355.39c.64,0,.86.31.86.86,0,4.91-16.31,29.8-28.42,43.36,6.52-22.73,20.48-44.22,27.57-44.22M44.15,392.33c0,11.6,15.3,16.63,37.06,28.89,4.75,2.67,6.57,5,6.57,7.79,0,14.09-24.94,25.55-42.27,25.55-8.95,0-13.54-4.19-13.54-11.2,0-3.8.88-6.16.88-6.16,0,0-4.19-1.83-6.21.2-1.41,1.41-2,4.06-2,8.14,0,7.97,5.45,17.32,20.58,17.32,12.51,0,24.12-3.85,33.22-9.39,11.51-7.01,24.83-18.29,36.04-31.44-.12,1.06-.18,2.13-.18,3.19,0,6.31,5.26,10.06,11.14,10.06s15.1-6.93,22.09-14.98c-.17,1.1-.3,2.49-.3,4.15,0,4.68,5.31,8.46,9.1,8.46,8.69,0,26.34-15,35.49-24.99.25,1.36.44,2.93.44,4.5,0,11.49-3.73,13.71-9.16,13.71-1.97,0-4.31-.38-4.31-.38,0,0-2.99,8.56,6.48,8.56,11.73,0,23.46-6,33.53-13.87-.76,2.32-1.19,4.67-1.19,6.99,0,4.61,4.93,8.7,9.3,8.7,5.17,0,16.37-8.46,22.62-15.41-.14,1.29-.29,3.09-.29,4.94,0,2.31,4.15,7.25,8.79,7.25,7.01,0,19.23-9.09,28.21-17.78-1.32,3.79-3.38,10.32-3.38,14.35,0,2.42,3.98,3.57,7.02,3.57,9.28-11.51,21.36-21.97,28.56-25.57-1.4,3.81-3.71,11.67-3.71,18.19,0,2.24,4.39,7.25,9.03,7.25s11.89-4.31,18.78-9.83c-.31,1.45-.48,2.91-.48,4.35,0,4.61,3.29,8.7,7.66,8.7,7.92,0,18.19-8.26,24.31-15.49-.17,1.27-.34,3.03-.34,5.03,0,2.59,4.15,7.25,8.78,7.25,7.97,0,25.87-15.67,26.9-16.8-5.49,10.84-10.07,21.59-12.85,30.9-1.84,6.17,7.32,6.6,7.32,6.6,15.26-43.61,51.83-109.08,89.24-109.08,5.68,0,9.15,3.08,9.15,8.18,0,13.04-27.65,38.54-56.56,47.99,0,0,.64,5.64,3.83,5.64,4.35,0,14.66-7.44,27.6-7.44,8.25,0,14.64,2.11,17.91,6.23-36.96,11.75-64.7,32.23-64.7,47.61,0,6.49,6.61,11.12,16.26,11.12,24.99,0,59.1-21.17,59.1-51.16,0-1.59-.19-3.12-.57-4.57,6.42-1.73,13.2-3.18,20.31-4.26-6.5,6.9-11.03,16.32-11.03,23.5,0,4.6,4.93,8.77,9.3,8.77,5.42,0,15.48-7.2,22.53-14.71-.12,1.04-.2,2.37-.2,4,0,3.5,4.15,7.49,8.79,7.49,5.86,0,15.12-6.42,23.26-13.61-.13,1.81-.19,3.61-.19,5.37,0,4.8,7.24,11.43,10.96,11.43,7.61,0,21.97-13.37,30.34-23.16-.63,4.04-.98,8.22-.98,11.98,0,5.65,7.41,11.18,10.36,11.18,9.4,0,22.97-13.1,26.9-26.4,2.98.41,6.15.67,10.06.67s7.82-.83,7.82-.83c-3.55,6.01-6.02,12.88-6.02,18.81,0,4.61,4.92,8.69,9.29,8.69,10.75,0,27.02-16.77,29.78-32.7,9.65.94,21.08,1.65,33.65,1.65,16,0,28.99-1.53,33.32-2.99,3.56-1.21,1.28-6.64,1.28-6.64,0,0-18.3,2.43-38.62,2.43-18.56,0-29.65-1.15-33.91-2.61-5.76-1.97-14.13-4.87-21.53-4.87-3.75,0-5.74,3.39-5.74,8.38,0,.01,2.58.56,4.55.96,0,0-4.48,3.16-12.48,3.16-6.36,0-10.56-.59-10.56-.59,0,0-1.45-7.06-10.96-7.06-5.3,0-7.29,4.34-7.29,7.34,3.18,1.4,9.33,3.69,9.33,6.03,0,5.17-9.88,18.26-17.06,18.26-2.34,0-3.58-1.52-3.58-6.32,0-9.98,1.36-19.4,6.02-26.46,15.81-23.95,27.01-47,27.01-47,0,0-2.92-3.52-6.68-3.52-7.03,0-21.7,24.91-29.86,51.18-3.25,10.44-24.27,32.12-32.42,32.12-1.7,0-4.39-1.52-4.39-6.32,0-6.69,1.87-11.9,5.5-16.51,7.94-8.22,32.35-37.21,32.88-52.42,0,0-3.19-3.83-7.28-3.83-14.11,0-31.47,28.35-37.5,56.66-1.73,8.14-18.44,20.14-23.69,20.14-1.13,0-1.76-.66-1.76-2.35,0-6.84,4.46-17.01,4.46-17.01-1.11-1.22-2.89-2.89-2.89-2.89-1.07-4.15-4.79-8.74-13.03-8.74-2.92,0-5.84.85-8.66,2.29-10.89,1.16-21.56,3.25-31.68,6.02-4.07-6.38-12.22-10.58-22.5-11.05,15.29-10.71,29.68-25.94,29.68-40.27,0-6.89-5.39-13.81-16.86-13.81-23.06,0-47.44,22.19-66.16,48.78-11.14,15.83-33.13,38.59-42.48,38.59-1.12,0-1.76-.66-1.76-2.35,0-6.74,4.23-16.62,4.23-16.62-1.33-.67-2.23-1.92-3.55-4.08-2.02-3.28-6.2-7.41-12.85-7.41-6.02,0-11.65,4.26-19.85,12.46-4.87,4.87-18.02,17.55-24.94,17.55-1.13,0-1.77-.66-1.77-2.35,0-7.07,6.11-22.02,6.11-22.02,0,0-2.62-4.18-5.62-4.18-4.57,0-18.93,8.73-30.25,21.97,3.22-9.78,7.9-18.68,7.9-18.68,0,0-3.24-2.72-7.42-2.72,0,0-25.98,28.43-35.15,28.43-1.12,0-1.76-.66-1.76-2.35,0-7.97,3.73-18.22,3.73-18.22,0,0-3.69-9.97-14.09-9.97-6.73,0-12.3,3.63-19.53,10.86-5.64,5.63-17.5,14.66-28.96,18.89.82-2.08,1.49-5.17,1.49-9.75,0-12.54-6.25-19.34-6.25-19.34,0,0-26.1,30.32-36.33,30.32-1.13,0-1.76-.66-1.76-2.35,0-6.86,3.68-15.15,5.45-19.06,0,0-2.92-2.4-6.99-3.25-2.57,3.7-18.31,26.07-27.65,26.07-2.68,0-3.43-1.72-3.43-4,0-8.71,9.78-21.46,9.78-21.46-.07-.11-5.74-5.64-8.16-2.67-7.94,9.76-16.58,21.2-28.22,32.19.17-.98.26-1.95.26-2.9,0-4.59-2.49-8.81-7.2-11.27-19.48-10.19-35.8-18.07-35.8-25.37,0-23.07,47.8-47.61,70.24-47.61,2.53,0,3.76,1.48,3.76,3.25,0,6.33-8.21,14.4-8.21,14.4,0,0,1.96,2.94,5.78,2.94,3.43,0,10.95-10.27,10.95-18.02,0-5.4-4.79-10.27-11.72-10.27-30.82,0-80.81,27.83-80.81,56.2v-.03Z"/>
    </clipPath>
  </defs>
  <path class="st0" d="M438.16,451.62c0-9.59,22.57-29.63,59.13-41.21.1.65.16,1.33.16,2.04,0,26.32-33.34,43.9-51.93,43.9-4.64,0-7.36-1.43-7.36-4.74M676.08,425.65c0-7.17,8.59-23.14,14.87-23.14,3.14,0,7.71,1.07,7.71,1.07-1.25,10.25-12.47,25.49-20.3,25.49-1.18,0-2.28-1.58-2.28-3.43M226.8,424.97c0-8.4,14.2-22.94,19.72-22.94,3.18,0,6.47,1.79,6.47,3.73,0,3.27-16.06,21.73-24.36,21.73-1.18,0-1.83-.67-1.83-2.52M351.01,424.97c0-8.4,14.2-22.94,19.72-22.94,3.17,0,6.39,1.79,6.39,3.73,0,3.27-15.98,21.73-24.28,21.73-1.18,0-1.83-.67-1.83-2.52M523.6,424.74c0-8.4,12.27-22.94,19.96-22.94,3.33,0,5.65,1.83,5.65,4.22,0,3.95-15.48,21.24-23.78,21.24-1.18,0-1.83-.67-1.83-2.52M616.92,355.39c.64,0,.86.31.86.86,0,4.91-16.31,29.8-28.42,43.36,6.52-22.73,20.48-44.22,27.57-44.22M44.15,392.33c0,11.6,15.3,16.63,37.06,28.89,4.75,2.67,6.57,5,6.57,7.79,0,14.09-24.94,25.55-42.27,25.55-8.95,0-13.54-4.19-13.54-11.2,0-3.8.88-6.16.88-6.16,0,0-4.19-1.83-6.21.2-1.41,1.41-2,4.06-2,8.14,0,7.97,5.45,17.32,20.58,17.32,12.51,0,24.12-3.85,33.22-9.39,11.51-7.01,24.83-18.29,36.04-31.44-.12,1.06-.18,2.13-.18,3.19,0,6.31,5.26,10.06,11.14,10.06s15.1-6.93,22.09-14.98c-.17,1.1-.3,2.49-.3,4.15,0,4.68,5.31,8.46,9.1,8.46,8.69,0,26.34-15,35.49-24.99.25,1.36.44,2.93.44,4.5,0,11.49-3.73,13.71-9.16,13.71-1.97,0-4.31-.38-4.31-.38,0,0-2.99,8.56,6.48,8.56,11.73,0,23.46-6,33.53-13.87-.76,2.32-1.19,4.67-1.19,6.99,0,4.61,4.93,8.7,9.3,8.7,5.17,0,16.37-8.46,22.62-15.41-.14,1.29-.29,3.09-.29,4.94,0,2.31,4.15,7.25,8.79,7.25,7.01,0,19.23-9.09,28.21-17.78-1.32,3.79-3.38,10.32-3.38,14.35,0,2.42,3.98,3.57,7.02,3.57,9.28-11.51,21.36-21.97,28.56-25.57-1.4,3.81-3.71,11.67-3.71,18.19,0,2.24,4.39,7.25,9.03,7.25s11.89-4.31,18.78-9.83c-.31,1.45-.48,2.91-.48,4.35,0,4.61,3.29,8.7,7.66,8.7,7.92,0,18.19-8.26,24.31-15.49-.17,1.27-.34,3.03-.34,5.03,0,2.59,4.15,7.25,8.78,7.25,7.97,0,25.87-15.67,26.9-16.8-5.49,10.84-10.07,21.59-12.85,30.9-1.84,6.17,7.32,6.6,7.32,6.6,15.26-43.61,51.83-109.08,89.24-109.08,5.68,0,9.15,3.08,9.15,8.18,0,13.04-27.65,38.54-56.56,47.99,0,0,.64,5.64,3.83,5.64,4.35,0,14.66-7.44,27.6-7.44,8.25,0,14.64,2.11,17.91,6.23-36.96,11.75-64.7,32.23-64.7,47.61,0,6.49,6.61,11.12,16.26,11.12,24.99,0,59.1-21.17,59.1-51.16,0-1.59-.19-3.12-.57-4.57,6.42-1.73,13.2-3.18,20.31-4.26-6.5,6.9-11.03,16.32-11.03,23.5,0,4.6,4.93,8.77,9.3,8.77,5.42,0,15.48-7.2,22.53-14.71-.12,1.04-.2,2.37-.2,4,0,3.5,4.15,7.49,8.79,7.49,5.86,0,15.12-6.42,23.26-13.61-.13,1.81-.19,3.61-.19,5.37,0,4.8,7.24,11.43,10.96,11.43,7.61,0,21.97-13.37,30.34-23.16-.63,4.04-.98,8.22-.98,11.98,0,5.65,7.41,11.18,10.36,11.18,9.4,0,22.97-13.1,26.9-26.4,2.98.41,6.15.67,10.06.67s7.82-.83,7.82-.83c-3.55,6.01-6.02,12.88-6.02,18.81,0,4.61,4.92,8.69,9.29,8.69,10.75,0,27.02-16.77,29.78-32.7,9.65.94,21.08,1.65,33.65,1.65,16,0,28.99-1.53,33.32-2.99,3.56-1.21,1.28-6.64,1.28-6.64,0,0-18.3,2.43-38.62,2.43-18.56,0-29.65-1.15-33.91-2.61-5.76-1.97-14.13-4.87-21.53-4.87-3.75,0-5.74,3.39-5.74,8.38,0,.01,2.58.56,4.55.96,0,0-4.48,3.16-12.48,3.16-6.36,0-10.56-.59-10.56-.59,0,0-1.45-7.06-10.96-7.06-5.3,0-7.29,4.34-7.29,7.34,3.18,1.4,9.33,3.69,9.33,6.03,0,5.17-9.88,18.26-17.06,18.26-2.34,0-3.58-1.52-3.58-6.32,0-9.98,1.36-19.4,6.02-26.46,15.81-23.95,27.01-47,27.01-47,0,0-2.92-3.52-6.68-3.52-7.03,0-21.7,24.91-29.86,51.18-3.25,10.44-24.27,32.12-32.42,32.12-1.7,0-4.39-1.52-4.39-6.32,0-6.69,1.87-11.9,5.5-16.51,7.94-8.22,32.35-37.21,32.88-52.42,0,0-3.19-3.83-7.28-3.83-14.11,0-31.47,28.35-37.5,56.66-1.73,8.14-18.44,20.14-23.69,20.14-1.13,0-1.76-.66-1.76-2.35,0-6.84,4.46-17.01,4.46-17.01-1.11-1.22-2.89-2.89-2.89-2.89-1.07-4.15-4.79-8.74-13.03-8.74-2.92,0-5.84.85-8.66,2.29-10.89,1.16-21.56,3.25-31.68,6.02-4.07-6.38-12.22-10.58-22.5-11.05,15.29-10.71,29.68-25.94,29.68-40.27,0-6.89-5.39-13.81-16.86-13.81-23.06,0-47.44,22.19-66.16,48.78-11.14,15.83-33.13,38.59-42.48,38.59-1.12,0-1.76-.66-1.76-2.35,0-6.74,4.23-16.62,4.23-16.62-1.33-.67-2.23-1.92-3.55-4.08-2.02-3.28-6.2-7.41-12.85-7.41-6.02,0-11.65,4.26-19.85,12.46-4.87,4.87-18.02,17.55-24.94,17.55-1.13,0-1.77-.66-1.77-2.35,0-7.07,6.11-22.02,6.11-22.02,0,0-2.62-4.18-5.62-4.18-4.57,0-18.93,8.73-30.25,21.97,3.22-9.78,7.9-18.68,7.9-18.68,0,0-3.24-2.72-7.42-2.72,0,0-25.98,28.43-35.15,28.43-1.12,0-1.76-.66-1.76-2.35,0-7.97,3.73-18.22,3.73-18.22,0,0-3.69-9.97-14.09-9.97-6.73,0-12.3,3.63-19.53,10.86-5.64,5.63-17.5,14.66-28.96,18.89.82-2.08,1.49-5.17,1.49-9.75,0-12.54-6.25-19.34-6.25-19.34,0,0-26.1,30.32-36.33,30.32-1.13,0-1.76-.66-1.76-2.35,0-6.86,3.68-15.15,5.45-19.06,0,0-2.92-2.4-6.99-3.25-2.57,3.7-18.31,26.07-27.65,26.07-2.68,0-3.43-1.72-3.43-4,0-8.71,9.78-21.46,9.78-21.46-.07-.11-5.74-5.64-8.16-2.67-7.94,9.76-16.58,21.2-28.22,32.19.17-.98.26-1.95.26-2.9,0-4.59-2.49-8.81-7.2-11.27-19.48-10.19-35.8-18.07-35.8-25.37,0-23.07,47.8-47.61,70.24-47.61,2.53,0,3.76,1.48,3.76,3.25,0,6.33-8.21,14.4-8.21,14.4,0,0,1.96,2.94,5.78,2.94,3.43,0,10.95-10.27,10.95-18.02,0-5.4-4.79-10.27-11.72-10.27-30.82,0-80.81,27.83-80.81,56.2"/>
  <g>
    <path class="st0" d="M438.16,451.62c0-9.59,22.57-29.63,59.13-41.21.1.65.16,1.33.16,2.04,0,26.32-33.34,43.9-51.93,43.9-4.64,0-7.36-1.43-7.36-4.74M676.08,425.65c0-7.17,8.59-23.14,14.87-23.14,3.14,0,7.71,1.07,7.71,1.07-1.25,10.25-12.47,25.49-20.3,25.49-1.18,0-2.28-1.58-2.28-3.43M226.8,424.97c0-8.4,14.2-22.94,19.72-22.94,3.18,0,6.47,1.79,6.47,3.73,0,3.27-16.06,21.73-24.36,21.73-1.18,0-1.83-.67-1.83-2.52M351.01,424.97c0-8.4,14.2-22.94,19.72-22.94,3.17,0,6.39,1.79,6.39,3.73,0,3.27-15.98,21.73-24.28,21.73-1.18,0-1.83-.67-1.83-2.52M523.6,424.74c0-8.4,12.27-22.94,19.96-22.94,3.33,0,5.65,1.83,5.65,4.22,0,3.95-15.48,21.24-23.78,21.24-1.18,0-1.83-.67-1.83-2.52M616.92,355.39c.64,0,.86.31.86.86,0,4.91-16.31,29.8-28.42,43.36,6.52-22.73,20.48-44.22,27.57-44.22M44.15,392.33c0,11.6,15.3,16.63,37.06,28.89,4.75,2.67,6.57,5,6.57,7.79,0,14.09-24.94,25.55-42.27,25.55-8.95,0-13.54-4.19-13.54-11.2,0-3.8.88-6.16.88-6.16,0,0-4.19-1.83-6.21.2-1.41,1.41-2,4.06-2,8.14,0,7.97,5.45,17.32,20.58,17.32,12.51,0,24.12-3.85,33.22-9.39,11.51-7.01,24.83-18.29,36.04-31.44-.12,1.06-.18,2.13-.18,3.19,0,6.31,5.26,10.06,11.14,10.06s15.1-6.93,22.09-14.98c-.17,1.1-.3,2.49-.3,4.15,0,4.68,5.31,8.46,9.1,8.46,8.69,0,26.34-15,35.49-24.99.25,1.36.44,2.93.44,4.5,0,11.49-3.73,13.71-9.16,13.71-1.97,0-4.31-.38-4.31-.38,0,0-2.99,8.56,6.48,8.56,11.73,0,23.46-6,33.53-13.87-.76,2.32-1.19,4.67-1.19,6.99,0,4.61,4.93,8.7,9.3,8.7,5.17,0,16.37-8.46,22.62-15.41-.14,1.29-.29,3.09-.29,4.94,0,2.31,4.15,7.25,8.79,7.25,7.01,0,19.23-9.09,28.21-17.78-1.32,3.79-3.38,10.32-3.38,14.35,0,2.42,3.98,3.57,7.02,3.57,9.28-11.51,21.36-21.97,28.56-25.57-1.4,3.81-3.71,11.67-3.71,18.19,0,2.24,4.39,7.25,9.03,7.25s11.89-4.31,18.78-9.83c-.31,1.45-.48,2.91-.48,4.35,0,4.61,3.29,8.7,7.66,8.7,7.92,0,18.19-8.26,24.31-15.49-.17,1.27-.34,3.03-.34,5.03,0,2.59,4.15,7.25,8.78,7.25,7.97,0,25.87-15.67,26.9-16.8-5.49,10.84-10.07,21.59-12.85,30.9-1.84,6.17,7.32,6.6,7.32,6.6,15.26-43.61,51.83-109.08,89.24-109.08,5.68,0,9.15,3.08,9.15,8.18,0,13.04-27.65,38.54-56.56,47.99,0,0,.64,5.64,3.83,5.64,4.35,0,14.66-7.44,27.6-7.44,8.25,0,14.64,2.11,17.91,6.23-36.96,11.75-64.7,32.23-64.7,47.61,0,6.49,6.61,11.12,16.26,11.12,24.99,0,59.1-21.17,59.1-51.16,0-1.59-.19-3.12-.57-4.57,6.42-1.73,13.2-3.18,20.31-4.26-6.5,6.9-11.03,16.32-11.03,23.5,0,4.6,4.93,8.77,9.3,8.77,5.42,0,15.48-7.2,22.53-14.71-.12,1.04-.2,2.37-.2,4,0,3.5,4.15,7.49,8.79,7.49,5.86,0,15.12-6.42,23.26-13.61-.13,1.81-.19,3.61-.19,5.37,0,4.8,7.24,11.43,10.96,11.43,7.61,0,21.97-13.37,30.34-23.16-.63,4.04-.98,8.22-.98,11.98,0,5.65,7.41,11.18,10.36,11.18,9.4,0,22.97-13.1,26.9-26.4,2.98.41,6.15.67,10.06.67s7.82-.83,7.82-.83c-3.55,6.01-6.02,12.88-6.02,18.81,0,4.61,4.92,8.69,9.29,8.69,10.75,0,27.02-16.77,29.78-32.7,9.65.94,21.08,1.65,33.65,1.65,16,0,28.99-1.53,33.32-2.99,3.56-1.21,1.28-6.64,1.28-6.64,0,0-18.3,2.43-38.62,2.43-18.56,0-29.65-1.15-33.91-2.61-5.76-1.97-14.13-4.87-21.53-4.87-3.75,0-5.74,3.39-5.74,8.38,0,.01,2.58.56,4.55.96,0,0-4.48,3.16-12.48,3.16-6.36,0-10.56-.59-10.56-.59,0,0-1.45-7.06-10.96-7.06-5.3,0-7.29,4.34-7.29,7.34,3.18,1.4,9.33,3.69,9.33,6.03,0,5.17-9.88,18.26-17.06,18.26-2.34,0-3.58-1.52-3.58-6.32,0-9.98,1.36-19.4,6.02-26.46,15.81-23.95,27.01-47,27.01-47,0,0-2.92-3.52-6.68-3.52-7.03,0-21.7,24.91-29.86,51.18-3.25,10.44-24.27,32.12-32.42,32.12-1.7,0-4.39-1.52-4.39-6.32,0-6.69,1.87-11.9,5.5-16.51,7.94-8.22,32.35-37.21,32.88-52.42,0,0-3.19-3.83-7.28-3.83-14.11,0-31.47,28.35-37.5,56.66-1.73,8.14-18.44,20.14-23.69,20.14-1.13,0-1.76-.66-1.76-2.35,0-6.84,4.46-17.01,4.46-17.01-1.11-1.22-2.89-2.89-2.89-2.89-1.07-4.15-4.79-8.74-13.03-8.74-2.92,0-5.84.85-8.66,2.29-10.89,1.16-21.56,3.25-31.68,6.02-4.07-6.38-12.22-10.58-22.5-11.05,15.29-10.71,29.68-25.94,29.68-40.27,0-6.89-5.39-13.81-16.86-13.81-23.06,0-47.44,22.19-66.16,48.78-11.14,15.83-33.13,38.59-42.48,38.59-1.12,0-1.76-.66-1.76-2.35,0-6.74,4.23-16.62,4.23-16.62-1.33-.67-2.23-1.92-3.55-4.08-2.02-3.28-6.2-7.41-12.85-7.41-6.02,0-11.65,4.26-19.85,12.46-4.87,4.87-18.02,17.55-24.94,17.55-1.13,0-1.77-.66-1.77-2.35,0-7.07,6.11-22.02,6.11-22.02,0,0-2.62-4.18-5.62-4.18-4.57,0-18.93,8.73-30.25,21.97,3.22-9.78,7.9-18.68,7.9-18.68,0,0-3.24-2.72-7.42-2.72,0,0-25.98,28.43-35.15,28.43-1.12,0-1.76-.66-1.76-2.35,0-7.97,3.73-18.22,3.73-18.22,0,0-3.69-9.97-14.09-9.97-6.73,0-12.3,3.63-19.53,10.86-5.64,5.63-17.5,14.66-28.96,18.89.82-2.08,1.49-5.17,1.49-9.75,0-12.54-6.25-19.34-6.25-19.34,0,0-26.1,30.32-36.33,30.32-1.13,0-1.76-.66-1.76-2.35,0-6.86,3.68-15.15,5.45-19.06,0,0-2.92-2.4-6.99-3.25-2.57,3.7-18.31,26.07-27.65,26.07-2.68,0-3.43-1.72-3.43-4,0-8.71,9.78-21.46,9.78-21.46-.07-.11-5.74-5.64-8.16-2.67-7.94,9.76-16.58,21.2-28.22,32.19.17-.98.26-1.95.26-2.9,0-4.59-2.49-8.81-7.2-11.27-19.48-10.19-35.8-18.07-35.8-25.37,0-23.07,47.8-47.61,70.24-47.61,2.53,0,3.76,1.48,3.76,3.25,0,6.33-8.21,14.4-8.21,14.4,0,0,1.96,2.94,5.78,2.94,3.43,0,10.95-10.27,10.95-18.02,0-5.4-4.79-10.27-11.72-10.27-30.82,0-80.81,27.83-80.81,56.2v-.03Z"/>
    <g class="st1">
      <rect class="st0" x="19.41" y="263" width="762.69" height="274.09" transform="translate(-71.22 87.19) rotate(-11.41)"/>
    </g>
  </g>
</svg>