<?xml version="1.0" encoding="UTF-8"?>
<svg id="Capa_1" xmlns="http://www.w3.org/2000/svg" version="1.1" viewBox="0 0 800 800">
  <!-- Generator: Adobe Illustrator 29.3.1, SVG Export Plug-In . SVG Version: 2.1.0 Build 151)  -->
  <defs>
    <style>
      .st0 {
        fill: #ededed;
      }
    </style>
  </defs>
  <path class="st0" d="M76.83,474.7v-2.12l.83-.18c8-1.54,8.66-4.71,8.66-7.83,0,0-.14-58.62-.15-63.48h-18.54c-9.12,0-13.33,2.04-15.55,7.51l-.19.47-2.56.18h-.29v-14.49h87.75v14.49h-3.15l-.45-.67c-2.24-5.54-6.18-7.5-15.01-7.5h-18.66c0,4.86-.09,63.48-.09,63.48,0,3.57,1.44,6.25,8.45,7.69l.83.2v2.25h-31.88Z"/>
  <path class="st0" d="M151.21,473.87v-2.26l.98-.06c5.08-.25,6.71-1.79,6.71-6.32v-30.43c0-35.08-.66-36.28-6.7-36.5h-1v-2.27h63.87v12.82h-1.72l-.19-.76c-1.22-4.61-8.55-7.37-19.6-7.37h-21.59v31.97h38.64l-6.9,4.92-31.74.05v32.02h27.63c7.61,0,13-2.55,15.61-7.36l.39-.77,1.53.38-2.39,11.92h-63.53v.02Z"/>
  <path class="st0" d="M236.91,541.77c-1.51,0-2.67-.66-3.42-1.97-.73-1.26-.85-3.08-.38-5.43.74-3.59,2.86-7.74,6.28-12.35s6.93-8.07,10.42-10.29c3.52-2.24,6.62-3.37,9.2-3.37.51,0,1.23.06,2.14.2l8-17.74,6.78-.7-15.17,33.72c-1.19,2.69-2.39,5.19-3.65,7.66-1.21,2.74-2.25,5.09-2.32,5.28-.11.34-.11.63.02.85.22.39.77.58.97.62l1.16.24-1,.64c-1.2.78-6.56,2.36-7.16,2.54l-.19.05-.17-.08c-.5-.25-1.34-1.05-.94-2.3.18-.57.78-2,1.37-3.36-2.36,1.88-4.35,3.23-5.92,4.03-2.31,1.18-4.34,1.77-6.02,1.77M255.68,513.02c-1.58,0-3.29.62-5.07,1.87-1.82,1.26-3.87,3.76-6.1,7.43-2.22,3.69-3.64,6.93-4.2,9.65-.24,1.14-.13,2.04.33,2.75.43.66.98.98,1.7.98.97,0,2.21-.44,3.66-1.31,2.16-1.33,4.02-2.97,5.51-4.88.19-.27.43-.66.7-1.12.41-.93.85-1.94,1.37-3.06l5.35-11.84c-1.49-.33-2.58-.48-3.25-.48"/>
  <g>
    <path class="st0" d="M719.98,475.49c-7.55,0-14.07-.91-24.09-3.34l-.75-.19-.69-11.48h2.4l.46.65c2.95,7.59,13.44,10.98,22.51,10.98s19.4-3.57,19.4-13.57c0-10.81-10.59-13.88-21.82-17.11-12.61-3.65-26.9-7.8-26.9-24.12,0-14.69,11.73-22.13,34.86-22.13l10.11.84c.88.11,1.65.22,2.37.31,1.93.27,3.45.48,5.61.48.37,0,2.2-.04,2.2-.04l.61,12.64h-2.07l-.48-.66c-2.71-7-12.25-10.13-20.53-10.13-10.43,0-20.94,4.38-20.94,14.19,0,11.29,11.03,14.71,22.69,18.33,12.81,3.96,26.06,8.05,26.06,22.89,0,13.83-11,21.44-31,21.44"/>
    <path class="st0" d="M507.63,473.62v-1.08l57.83-71.89h-37.62c-7.37,0-12.03,2.53-14.24,7.74l-.17.46-3.18.18h-.31l.65-14.64,76.47.05v2.2l-.33.31-57.59,71.45h26.64c20.31,0,23.4-3.78,25.56-9.13l.18-.45,2-.19h.36l-2.91,14.99h-73.36.02Z"/>
    <path class="st0" d="M291.6,474.31v-1.31l.02-.44.51-.43c.2-.05.6-.13.92-.19-.24-.36-.52-.81-.52-.81l-24.28-27.56c-3.38-3.29-7.35-5.14-12.45-5.78v26.81c0,.79.15,7.68,5.46,7.68h1.02v1l.04,1.03h-25.35v-2.03h1.02c5.36,0,5.51-6.89,5.51-7.68l-.33-45.66-.28-12.47c0-6.01-1.58-7.94-6.51-7.94h-1.05v-1.24l.04-.99,26.03-.68c24.78,0,37.86,7.76,37.86,22.45,0,11.2-11.88,18.07-22.28,20.63,5.5,5.16,28.88,27.01,29.2,27.29l1.05,1.02c2.19,2.14,4.26,4.18,7.16,4.94l.79.2v1.12l.04,1.03h-23.62ZM256.42,434.97l4.75.45c16.41,0,24.07-5.58,24.07-17.53,0-12.93-6.97-18.45-23.29-18.45-5.6,0-5.6.26-5.6,2.76l-.55,15.88v16.8l.63.08h0Z"/>
    <path class="st0" d="M409.99,474.06v-1.98l.75-.2c5.09-1.36,6.55-4.56,8.23-8.26l.42-.93.78-1.59,32.83-68.73,2.12-.17,31.17,68.93c2.31,5.46,4.03,8.9,10.02,10.78l.73.21v.87l.06,1.07h-26.39v-1.18l-.04-.42,1.75-1.09c1.42-.69,2.88-2.28,3.01-4.3.05-1.12-.4-2.11-.92-3.25l-5.76-12.88-3.29-7.26-29.46.17-3.15,7.08-4.31,9.92c-.85,1.9-.85,4.61-.85,5.63,0,1.31,1.79,4.41,5.08,5.42l.71.21v.87l.04,1.08h-23.53ZM463.33,438.83c-1.43-3.11-10.46-22.77-12.21-26.59-1.85,3.8-11.52,23.46-13.07,26.59h25.28Z"/>
    <path class="st0" d="M381.15,474.31v-1.31l.02-.44.51-.43c.2-.05.59-.13.92-.19-.24-.36-.54-.8-.54-.8l-24.27-27.56c-3.38-3.29-7.35-5.14-12.46-5.78v26.81c0,.79.15,7.68,5.46,7.68h1.02v1l.04,1.03h-25.36v-2.03h1.02c5.35,0,5.51-6.89,5.51-7.68l-.33-45.66-.28-12.47c0-6.01-1.58-7.94-6.51-7.94h-1.05v-1.24l.03-.99,26.04-.68c24.77,0,37.86,7.76,37.86,22.45,0,11.2-11.88,18.07-22.28,20.63,5.5,5.16,28.86,27.01,29.2,27.29l1.05,1.02c2.2,2.15,4.26,4.18,7.16,4.94l.78.2v1.12l.04,1.03h-23.59,0ZM345.97,434.97l4.73.45c16.41,0,24.08-5.58,24.08-17.53,0-12.93-6.97-18.45-23.29-18.45-5.6,0-5.6.26-5.6,2.76l-.55,15.88v16.8l.63.08h0Z"/>
    <path class="st0" d="M594.71,474.06v-1.98l.75-.2c5.09-1.36,6.55-4.56,8.23-8.26l.42-.93.78-1.59,32.83-68.73,2.12-.17,31.17,68.93c2.31,5.46,4.03,8.9,10.02,10.78l.74.21v.87l.05,1.07h-26.39v-1.18l-.04-.42,1.75-1.09c1.42-.69,2.88-2.28,3.01-4.3.05-1.12-.4-2.11-.92-3.25l-5.75-12.88-3.31-7.26-29.45.17-3.15,7.08-4.31,9.92c-.85,1.9-.85,4.61-.85,5.63,0,1.31,1.79,4.41,5.08,5.42l.71.21v.87l.04,1.08h-23.53ZM648.05,438.83c-1.43-3.11-10.46-22.77-12.21-26.59-1.85,3.8-11.52,23.46-13.07,26.59h25.28Z"/>
    <path class="st0" d="M434.43,270.13c-2.79-2.18-23.57-23.43-23.57-23.43l-10.35,10.28-10.34-10.28s-18.9,18.78-22.92,22.78c-4.01,3.99-7.43.71-7.43.71l30.34-30.16,10.34,10.28,10.35-10.28,30.34,30.16s-3.97,2.12-6.78-.06"/>
    <polygon class="st0" points="393.51 327.11 349.77 283.62 338.78 294.56 335.19 290.99 349.77 276.48 397.1 323.53 393.51 327.11"/>
    <path class="st0" d="M313.78,319.47l-19.96-19.84,16.47-16.36c2.73-2.72,7.49-2.72,10.22,0l26.19,26.04-3.6,3.57-26.18-26.04c-.8-.81-2.22-.81-3.02,0l-12.89,12.79,12.77,12.7,11.04-10.97,3.59,3.57-14.62,14.55h-.01Z"/>
    <path class="st0" d="M418.73,352.03l-14.72-14.59,3.6-3.57,11.14,11.03,62.14-61.81c1.42-1.42,3.28-2.28,5.32-2.18,2.02.01,3.9.81,5.31,2.25l15.48,15.79-20.03,19.92-14.02-13.95,3.6-3.57,10.42,10.37,12.9-12.82-11.98-12.22c-.46-.46-1.1-.84-1.71-.71-.64,0-1.24.25-1.7.7l-65.74,65.37h-.01Z"/>
    <path class="st0" d="M400.51,307.7l-22.94-22.82c1.98-1.97,5.21-1.97,7.18,0l15.76,15.67,15.71-15.61c1.98-1.97,5.21-1.97,7.18,0l-22.89,22.75h0Z"/>
    <path class="st0" d="M382.49,352.01l-32.4-32.19-23.59,23.45c-1.98,1.98-5.4,2.18-7.39.2l30.98-30.8,32.4,32.19,68.88-68.47,14.66,14.59-3.6,3.57-11.06-11.02-68.88,68.47h0Z"/>
    <path class="st0" d="M474.25,343.53l-19.93-20.17,3.62-3.54,23.49,23.77c-1.99,1.96-5.22,1.93-7.18-.06"/>
    <path class="st0" d="M269.97,541.59c-1.97,0-3.37-.68-4.16-2.03-.77-1.31-.87-3.3-.29-6.07,1.1-5.37,3.89-10.77,8.28-16.07,4.98-6.06,10.17-9.14,15.4-9.14,1.94,0,3.34.5,4.2,1.49.87,1,1.14,2.36.78,4.05-.34,1.7-1.29,3.38-2.79,5-1.48,1.6-3.92,3.27-7.22,4.98-1.61.8-4.91,2.23-10.12,4.36-.46,1.24-.8,2.44-1.03,3.56-.42,2.02-.22,2.93.03,3.33.33.54.94.81,1.85.81.96,0,2.09-.27,3.38-.82,1.79-.75,4.54-2.32,8.19-4.64l.43-.28,1.37,2.46-.33.25c-7.41,5.82-13.45,8.77-17.95,8.77M285.55,512.34c-.83,0-1.72.33-2.67.96-1.31.88-2.55,2.23-3.7,4.03-1.48,2.34-2.73,4.75-3.71,7.18,3.85-1.64,6.93-3.41,9.15-5.26,1.58-1.35,2.53-2.7,2.79-4,.18-.93.1-1.65-.25-2.18-.34-.5-.87-.74-1.61-.74"/>
    <path class="st0" d="M336.9,541.7c-2.85,0-4.99-.94-6.37-2.81-1.38-1.84-1.75-4.36-1.11-7.49,1.08-5.26,3.65-10.2,7.62-14.67,5-5.56,10.48-8.38,16.27-8.38,2.64,0,4.65,1.05,5.97,3.13,1.31,2.03,1.6,4.87.87,8.43-1.15,5.58-4.21,10.66-9.1,15.09-4.9,4.44-9.66,6.69-14.15,6.69M349.52,512.12c-1.98,0-4.26,1.47-6.78,4.36-2.55,2.93-4.39,7.06-5.46,12.26-.64,3.11-.55,5.56.26,7.32.54,1.18,1.44,1.76,2.76,1.76,1.97,0,4.05-1.25,6.21-3.71,2.83-3.26,4.77-7.38,5.78-12.24.74-3.61.78-6.18.13-7.67-.61-1.4-1.56-2.09-2.9-2.09"/>
    <path class="st0" d="M513.5,541.59c-1.97,0-3.37-.68-4.16-2.03-.77-1.31-.87-3.29-.29-6.07,1.11-5.37,3.89-10.77,8.28-16.07,4.98-6.06,10.17-9.14,15.41-9.14,1.93,0,3.34.5,4.2,1.49.86,1,1.12,2.36.78,4.05-.36,1.7-1.29,3.38-2.81,5-1.48,1.6-3.92,3.27-7.22,4.98-1.6.8-4.91,2.23-10.12,4.36-.46,1.24-.8,2.43-1.03,3.56-.42,2.03-.22,2.93.03,3.33.33.54.94.81,1.85.81.96,0,2.11-.27,3.38-.82,1.79-.75,4.54-2.32,8.19-4.64l.43-.28,1.37,2.46-.33.25c-7.41,5.82-13.45,8.77-17.95,8.77M529.09,512.34c-.83,0-1.72.33-2.67.96-1.31.88-2.55,2.24-3.7,4.03-1.48,2.34-2.72,4.75-3.71,7.18,3.85-1.64,6.93-3.41,9.15-5.26,1.58-1.35,2.53-2.7,2.79-4,.19-.93.1-1.65-.25-2.17-.34-.5-.87-.75-1.61-.75"/>
    <path class="st0" d="M310.74,541.64c-.5-.25-1.34-1.05-.94-2.3l22.03-48.52,6.81-.7-.38.79c-1.88,3.83-12.8,27.91-14.19,31.12-2.21,4.95-6.41,14.4-6.53,14.74-.11.34-.11.62.03.84.22.4.78.58.96.62l1.19.23-1.01.66c-1.2.78-6.98,2.36-7.59,2.54l-.19.05-.17-.08h-.02Z"/>
    <path class="st0" d="M479.57,541.77c-1.51,0-2.67-.66-3.42-1.97-.73-1.26-.86-3.08-.38-5.43.74-3.59,2.86-7.74,6.28-12.35s6.93-8.07,10.42-10.29c3.52-2.24,6.62-3.37,9.2-3.37.5,0,1.23.06,2.14.2l8-17.74,6.78-.7-15.17,33.72c-1.17,2.67-2.37,5.17-3.65,7.66-1.21,2.74-2.25,5.09-2.32,5.28-.12.34-.12.63.02.85.2.39.77.58.97.62l1.16.24-1,.64c-1.2.78-6.56,2.36-7.16,2.54l-.19.05-.17-.08c-.51-.25-1.35-1.05-.94-2.3.14-.47.6-1.6,1.37-3.37-2.36,1.88-4.35,3.23-5.92,4.03-2.31,1.18-4.34,1.77-6.02,1.77M498.34,513.02c-1.58,0-3.29.62-5.08,1.87-1.81,1.26-3.85,3.76-6.09,7.43-2.23,3.69-3.64,6.93-4.2,9.65-.24,1.14-.13,2.04.33,2.75.43.66.98.98,1.7.98.97,0,2.2-.44,3.66-1.31,2.16-1.33,4.02-2.97,5.51-4.88.19-.27.43-.66.7-1.12.41-.93.85-1.94,1.37-3.06l5.35-11.84c-1.49-.33-2.58-.48-3.25-.48"/>
    <path class="st0" d="M457.08,540.79c.05-.12,4.76-11.98,9.32-20.68,1.84-3.82,2.31-5.01,2.37-5.34.03-.11.05-.31-.02-.4-.04-.04-.17-.17-.66-.17-.92,0-2.25.5-3.97,1.5-2.64,1.52-4.98,3.32-6.94,5.36-1.24,1.29-2.5,3.39-3.75,6.27l-5.33,12.27-7.34,1.16.41-.84c1.82-3.73,3.5-7.31,4.95-10.67,2.21-4.95,6.39-14.4,6.53-14.74.11-.34.11-.61-.03-.84-.22-.39-.77-.58-.97-.62l-1.15-.24.98-.65c1.2-.78,6.56-2.36,7.16-2.54l.18-.05.18.08c.5.26,1.34,1.05.94,2.31-.23.74-1.24,3.08-1.99,4.81,2.81-2.3,6.06-4.49,9.72-6.53,2.42-1.32,4.29-1.96,5.72-1.96,1.15,0,1.99.38,2.51,1.14.51.73.63,1.75.36,3.05-.17.8-.47,1.72-.91,2.71-.74,1.63-2.49,5.08-5.35,10.56-2.6,4.98-6.14,14.09-6.16,14.18l-.1.25-6.99,1.47.33-.84h0Z"/>
    <path class="st0" d="M367.26,541.24c-1.7,0-3.18-.17-4.54-.54-.79-.2-1.75-.56-2.82-1.04l-.56-.25,3.2-4.23.38.59c.19.31.36.53.55.71.99,1,2.47,1.51,4.4,1.51,1.63,0,3.2-.47,4.68-1.39,1.45-.91,2.47-2.11,3.02-3.55.31-.78.41-1.45.31-2.01-.11-.57-.34-1.12-.71-1.61-.38-.52-.89-.99-1.52-1.4-.66-.45-1.39-.91-2.21-1.38-1.37-.85-2.74-1.99-4.1-3.39-1.47-1.63-1.68-3.84-.66-6.6.51-1.35,1.24-2.57,2.16-3.65.91-1.07,1.98-1.99,3.16-2.72,1.17-.73,2.45-1.31,3.79-1.71,1.35-.4,2.76-.6,4.17-.6s3.55.47,5.23,1.11c.4.15.7.3.97.45l.48.27-3.14,4.14-.56-.91c-.09-.17-.18-.34-.28-.46-.82-.87-1.95-1.29-3.46-1.29-1.84,0-3.39.42-4.61,1.24-1.23.82-2.08,1.87-2.55,3.11-.5,1.26-.41,2.24.27,3.01.78.87,2.11,1.89,3.96,3.02,1.11.71,2.08,1.4,2.91,2.08.87.7,1.56,1.47,2.03,2.28.47.81.75,1.74.79,2.75.05.99-.15,2.11-.61,3.34-.92,2.59-2.78,4.81-5.51,6.6-2.67,1.68-5.56,2.53-8.63,2.53"/>
    <path class="st0" d="M543.04,541.24c-1.7,0-3.18-.17-4.53-.54-.8-.2-1.75-.56-2.83-1.04l-.56-.25,3.2-4.23.38.59c.19.31.36.53.55.71,1,1,2.47,1.51,4.4,1.51,1.63,0,3.2-.47,4.68-1.39,1.45-.91,2.47-2.11,3.02-3.55.31-.78.41-1.45.31-2.01-.1-.57-.34-1.12-.71-1.61-.38-.52-.89-.99-1.51-1.4-.66-.45-1.4-.91-2.22-1.38-1.37-.85-2.73-1.99-4.1-3.39-1.47-1.63-1.69-3.84-.66-6.6.51-1.35,1.24-2.57,2.16-3.65.92-1.07,1.98-1.99,3.16-2.72,1.19-.73,2.46-1.31,3.79-1.71,1.35-.4,2.76-.6,4.17-.6s3.55.47,5.23,1.11c.39.15.7.3.97.45l.48.27-3.14,4.14-.55-.91c-.1-.17-.19-.34-.29-.46-.82-.87-1.95-1.29-3.46-1.29-1.84,0-3.39.42-4.61,1.24s-2.08,1.87-2.54,3.11c-.51,1.26-.42,2.24.25,3.01.78.87,2.11,1.89,3.96,3.02,1.11.71,2.08,1.4,2.92,2.08.85.7,1.54,1.47,2.02,2.28.47.81.75,1.74.8,2.75.04.99-.17,2.11-.61,3.34-.93,2.59-2.78,4.81-5.52,6.6-2.67,1.68-5.56,2.53-8.63,2.53"/>
    <path class="st0" d="M363.99,559.96c-6.69,0-12.4-2.78-16.98-8.25l-.31-.36,1.62-1.51.33.3c3.06,2.74,7.48,5.88,14.34,5.88,11.33,0,25.81-8.59,43.04-25.52,8.7-8.52,15.17-15.72,20.37-21.51,6.99-7.79,12.04-13.42,18.23-17.66l4.48-.46.86-.07-.37.77c-.94,2.03-1.79,3.94-2.45,5.6l-9.76,25.05-9.84,25.6-.19.08c-.24.1-5.93,2.35-8.26,2.7l-1.06.16.57-.91c1.31-2.06,2.54-4.24,3.65-6.5.78-1.58,5.97-13.98,7.72-18.56h-.66c-2.87,0-6.93.06-12.16.2-1.2,1.35-2.5,2.72-3.99,4.16-19.59,20.42-36.14,30.79-49.18,30.79M420.89,520.93c1.98.05,4.58.08,7.82.08.84,0,1.76-.03,2.73-.1,3.29-8.85,6.1-15.79,8.37-20.7-3.13,3.23-5.13,5.33-6.01,6.3l-9.41,10.46c-1.21,1.37-2.39,2.7-3.51,3.95"/>
  </g>
</svg>