<?xml version="1.0" encoding="UTF-8"?>
<svg id="Capa_1" xmlns="http://www.w3.org/2000/svg" version="1.1" viewBox="0 0 800 800">
  <!-- Generator: Adobe Illustrator 29.3.1, SVG Export Plug-In . SVG Version: 2.1.0 Build 151)  -->
  <defs>
    <style>
      .st0 {
        fill: #ededed;
      }
    </style>
  </defs>
  <path class="st0" d="M340.59,378.93c-6.89-18-22.22-56.37-22.22-56.37h11.98v-6.4c-9.01.15-16.14.14-25.17.14-8.49,0-19.65-.14-25.72-.14v6.4h12.62l35.43,86.66h9.99l29.78-81.45c1.5-4.08,4.63-5.21,10.71-5.21h3.4v-6.4c-3.87,0-7.24.14-13.82.14-4.26,0-13.62,0-17.86-.14v6.4h5.15c3.16,0,4.58,2.61,3.57,5.51,0,0-11.58,33.01-17.85,50.86"/>
  <path class="st0" d="M447.63,380.38v-36.27h-4.44c-.76,9.91-2.6,14.75-13.2,14.75h-3.09v-36.3h8.71c14.96,0,21.22,5.82,23.74,20.3h4.68l-1.28-27.67c-5.45.93-12.77,1.13-22.3,1.13-5.66,0-29.61-.15-34.63-.15h-15.45v6.4h11.59v78.05h-11.59v6.69c9.41-.14,34.01-.11,36.7-.11,15.59,0,38.91.11,38.91.11l1.06-27.34h-4.71c-2.27,15.73-7.63,20.65-22.86,20.65h-12.57v-35.83h3.09c10.84,0,12.21,4.29,12.95,15.63l4.69-.03Z"/>
  <path class="st0" d="M733.62,402.02c-8.77,0-19.85-6.96-19.85-39.1,0-34.43,7.77-41.59,20.11-41.59,9.43,0,19.47,6.35,19.47,38.02,0,37.18-9.44,42.67-19.73,42.67M779.02,361.48c0-26.36-18.01-46.97-45.77-46.97s-45.16,20.55-45.16,46.75c0,32.61,23.42,47.69,45.04,47.69,25.36,0,45.89-17.17,45.89-47.47"/>
  <path class="st0" d="M74.86,322.23v78.35h12.45l-.13,6.73c-8.63-.14-16.02-.11-24.66-.11s-16.53-.03-25.27.11v-6.73h12.55v-78.35c-16.33,0-21.23,7.36-23.68,18.98l-.91,4.32h-4.22l1.05-29.86s8.47.63,24.23.63h31.83c15.77,0,24.25-.63,24.25-.63l1.29,29.86h-4.73l-.91-4.32c-2.43-11.58-7-18.89-23.11-18.98"/>
  <path class="st0" d="M258.46,322.56h11.88v-6.4c-7.74.15-14.43.14-22.15.14-9.16,0-17.26,0-26.4-.14v6.4h11.74v78.05h-11.74v6.69c8.77-.14,16.47-.11,25.12-.11,8.11,0,15.31-.03,23.55.11v-6.69h-12v-78.05Z"/>
  <path class="st0" d="M647.78,322.23v78.35h12.48l-.16,6.73c-8.63-.14-16.02-.11-24.66-.11s-16.54-.03-25.28.11v-6.73h12.55v-78.35c-16.33,0-21.23,7.36-23.68,18.98l-.91,4.32h-4.23l1.07-29.86s8.47.63,24.23.63h31.81c15.78,0,24.26-.63,24.26-.63l1.29,29.86h-4.73l-.91-4.32c-2.42-11.58-7-18.89-23.12-18.98"/>
  <path class="st0" d="M568.72,386.33v-57.66c.01-3.97,1.27-6.13,6.94-6.13h5.13v-6.67c-4.9.12-12.07.11-16.85.11-5.04,0-11.9.01-16.77-.11v6.67h6.88c4.66,0,6.33,1.91,6.33,6.13v46.02l-45.48-58.38h-33.94v6.38h8.39c2.53,0,3.41,1.34,3.41,2.91v68.9c0,3.96-1.82,6.11-6.93,6.11h-5.11v6.69c4.87-.14,12.04-.11,16.84-.11,5.04,0,11.86-.03,16.77.11v-6.69h-6.9c-4.7,0-6.3-1.91-6.3-6.11v-56.87l56.21,70.06h11.37v-21.36Z"/>
  <path class="st0" d="M213.25,407.19v-6.05c-12.02,0-14.89-4.76-16.58-15.49-2.83-18.04-9.23-21-28.55-23.23v-.33c18.77-.61,29.09-9.15,29.09-24.64,0-13.42-11.39-22.04-32.51-22.04-6.77,0-14.48.89-26.94.89-5.54,0-21.2-.15-21.2-.15v6.5h10.68v77.92h-11.46v6.73c9.66-.14,13.44-.11,23.11-.11,7.08,0,17.1-.03,24.21.11v-6.73h-10.93v-77.92h6.76c10.07,0,15.69,3.41,15.69,16.13,0,17.1-8.16,20.43-17.73,20.43h-.23v6.27h.74c8.44,0,12.47,3.11,15.81,22.67,2.02,11.92,6.72,19.04,15.6,19.03h24.43Z"/>
  <path class="st0" d="M543.96,471.82h-7.38l3.66-11.52,3.72,11.52ZM554.48,484.86l-11.54-31.85h-5.44l-11.53,31.85h6.36l2.6-7.88h10.65l2.52,7.88h6.38ZM512.69,485.15v-32.13h-5.76v23.66l-.29-.58-.29-.82c-.04-.09-.13-.3-.27-.63-.16-.35-.3-.6-.34-.68l-13.39-20.94h-6.99v31.85h5.79v-23.34c.16.53.24.71.44,1.11.04.04.15.29.37.67.36.67.59,1.11.69,1.26l13.66,20.6h6.38ZM468.27,453.01h-6.08v31.85h6.08v-31.85ZM449.01,458.18v-5.17h-25.18v5.17h9.55v26.68h6.08v-26.68h9.55ZM410.42,485.15v-32.13h-5.75v23.66l-.3-.58-.26-.82c-.06-.09-.16-.3-.3-.63-.14-.35-.3-.6-.34-.68l-13.37-20.94h-6.99v31.85h5.79v-23.34c.15.53.24.71.43,1.11.05.04.14.29.38.67.35.67.59,1.11.68,1.26l13.66,20.6h6.37ZM368,484.86v-5.15h-13.95v-8.49h10.9v-5.16h-10.9v-7.87h13.31v-5.17h-19.39v31.85h20.02ZM331.56,483.64v-13h-6.08v8.77c-1.88.54-2.71.66-4.15.66-7.09,0-12.54-4.97-12.54-11.47s4.97-10.71,12.11-10.71c2.03,0,4.29.38,6.56,1.16.57.2,1.45.46,2.6.91l1.46-5.06c-2.22-.98-3.18-1.32-4.72-1.7-2.03-.48-4.34-.72-6.67-.72-5.49,0-9.16,1.25-12.44,4.25-3.43,3.13-5.27,7.33-5.27,12.16,0,9.82,7.34,16.59,17.91,16.59,2.65,0,4.62-.25,8-1.06.73-.15,1.8-.45,3.24-.78M283.64,462.41c0,3.22-1.68,4.57-5.55,4.57h-3.95v-8.79h3.95c3.97,0,5.55,1.22,5.55,4.23M291.11,484.86l-7.91-13.64c2.66-.75,3.77-1.4,4.98-2.94,1.15-1.55,1.74-3.53,1.74-6,0-3-.87-5.28-2.61-6.88-1.88-1.8-4.01-2.37-8.63-2.37h-10.61v31.85h6.08v-12.74h3.04l7.28,12.74h6.64ZM244.44,471.82h-7.37l3.66-11.52,3.71,11.52ZM254.97,484.86l-11.55-31.85h-5.44l-11.52,31.85h6.35l2.62-7.88h10.66l2.51,7.88h6.38Z"/>
</svg>