<?xml version="1.0" encoding="UTF-8"?>
<svg id="Capa_1" xmlns="http://www.w3.org/2000/svg" version="1.1" viewBox="0 0 800 800">
  <!-- Generator: Adobe Illustrator 29.3.1, SVG Export Plug-In . SVG Version: 2.1.0 Build 151)  -->
  <defs>
    <style>
      .st0 {
        fill: #ededed;
      }
    </style>
  </defs>
  <polygon class="st0" points="176.62 353.66 148.62 353.65 196.96 447.53 224.38 447.53 176.62 353.66"/>
  <polygon class="st0" points="108.64 447.53 136.07 447.53 167.75 400.58 142.03 400.58 108.64 447.53"/>
  <path class="st0" d="M700.6,353.52h24.82v93.95h-23.36l-21.14-26.17c-9.48-11.8-23.37-29.64-23.52-29.64-.3,0,0,14.47,0,35.01v20.8h-24.87v-93.95h23.37l22.06,26.84c6.65,8.06,22.46,28.35,22.63,28.35.29,0,0-16.66,0-33.72v-21.47Z"/>
  <polygon class="st0" points="72.67 447.53 60.79 447.53 60.79 412.33 19.76 353.65 47.2 353.66 72.67 393.1 98.17 353.65 125.61 353.66 84.62 411.89 84.62 447.53 72.67 447.53"/>
  <path class="st0" d="M282.16,431.55c10.91,0,20.57-5.74,26.12-14.36l22.94,6.53c-9.42,15.51-27.84,26.07-49.06,26.07-30.78,0-55.77-22.3-55.77-49.78-.01-27.51,24.99-49.81,55.77-49.81,21.38,0,39.99,10.76,49.31,26.51l-22.81,6.68c-5.5-8.97-15.31-14.92-26.49-14.92-17.19,0-31.12,14.13-31.12,31.54s13.93,31.53,31.12,31.53"/>
  <polygon class="st0" points="780.23 447.53 755.27 447.53 755.27 353.66 780.24 353.66 780.23 447.53"/>
  <rect class="st0" x="577.47" y="353.66" width="24.96" height="93.87"/>
  <path class="st0" d="M397.82,431.55c-17.19,0-31.12-14.13-31.12-31.53s13.94-31.54,31.12-31.54,31.13,14.13,31.13,31.54-13.92,31.53-31.13,31.53M397.82,350.21c-30.81,0-55.78,22.29-55.78,49.81s24.96,49.78,55.78,49.78,55.79-22.3,55.79-49.78-24.97-49.81-55.79-49.81"/>
  <path class="st0" d="M520.01,397.87h-19.76v-25.07h19.76c8.64,0,12.82,4.55,12.82,12.34s-4.18,12.75-12.82,12.74M521.03,353.57l-45.58.02v93.87h24.8v-30.38h20.78c26.33,0,36.01-12.21,36.01-31.95s-9.68-31.57-36.01-31.57"/>
</svg>