<?xml version="1.0" encoding="UTF-8"?>
<svg id="Capa_1" xmlns="http://www.w3.org/2000/svg" version="1.1" viewBox="0 0 1080 1080">
  <!-- Generator: Adobe Illustrator 29.3.1, SVG Export Plug-In . SVG Version: 2.1.0 Build 151)  -->
  <defs>
    <style>
      .st0 {
        fill: #ededed;
      }
    </style>
  </defs>
  <path class="st0" d="M409.93,829.1c26.47-5.48,49.46-15.69,68.94-30.61,17.24-12.96,31.68-28.96,43.21-47.98,18.1-28.74,27.15-61.14,27.15-97.32s-7.94-64.84-23.75-89.38c-15.86-24.56-39.34-42.51-70.49-53.84,20.49-10.46,36-22.05,46.56-34.76,18.81-22.59,28.26-52.58,28.26-89.83s-9.36-67.2-28.03-93.13c-31.01-42.19-83.73-63.85-158.1-64.96H48.78v610.1h274.93c30.97,0,59.76-2.77,86.22-8.29ZM170.48,333.24h132.74c29.23,0,53.25,3.16,72.1,9.54,21.87,9.09,32.79,27.85,32.79,56.28,0,25.67-8.28,43.54-24.82,53.61-16.49,10.07-38.02,15.11-64.53,15.11h-148.28v-134.53ZM170.48,731.43v-162.64h150.16c26.25.26,46.52,3.7,61,10.33,25.9,11.85,38.86,33.64,38.86,65.37,0,37.52-13.37,62.92-40.1,76.19-14.71,7.18-35.34,10.74-61.76,10.74h-148.16Z"/>
  <g>
    <path class="st0" d="M652.56,797.19c45.89,37.03,98.88,55.52,158.9,55.52,72.77,0,129.35-21.92,169.72-65.81,26.02-27.62,40.59-54.81,43.77-81.54h-120.45c-7,13.23-15.11,23.56-24.29,31.01-16.8,13.82-38.63,20.72-65.5,20.72-25.35,0-47.01-5.66-65.02-16.98-29.63-18.22-45.36-49.95-47.19-95.22h328.58c.59-38.94-.71-68.79-3.88-89.52-5.47-35.38-17.47-66.48-35.95-93.26-20.45-30.39-46.48-52.67-77.98-66.75-31.42-14.08-66.8-21.12-106.09-21.12-66.09,0-119.87,20.85-161.31,62.56-41.44,41.67-62.15,101.6-62.15,179.76,0,83.41,22.95,143.61,68.84,180.64ZM736.82,497.27c16.7-17.16,40.15-25.76,70.4-25.76,27.85,0,51.2,8.11,70,24.29,18.81,16.21,29.28,40.01,31.42,71.29h-203.25c4.28-29.36,14.76-52.63,31.42-69.82Z"/>
    <rect class="st0" x="666.95" y="262.36" width="265.13" height="61.57"/>
  </g>
</svg>