<?xml version="1.0" encoding="UTF-8"?>
<svg id="Capa_1" xmlns="http://www.w3.org/2000/svg" version="1.1" viewBox="0 0 1080 1080">
  <!-- Generator: Adobe Illustrator 29.3.1, SVG Export Plug-In . SVG Version: 2.1.0 Build 151)  -->
  <defs>
    <style>
      .st0 {
        fill: #ededed;
      }
    </style>
  </defs>
  <path class="st0" d="M540,157.28c124.65,0,139.41.47,188.64,2.72,45.51,2.08,70.23,9.68,86.69,16.08,21.79,8.47,37.34,18.58,53.67,34.92,16.34,16.34,26.45,31.89,34.92,53.67,6.4,16.46,14,41.17,16.08,86.69,2.24,49.22,2.72,63.99,2.72,188.64s-.48,139.42-2.72,188.64c-2.09,45.52-9.68,70.24-16.08,86.68-8.47,21.8-18.58,37.34-34.92,53.68-16.33,16.33-31.88,26.45-53.67,34.92-16.46,6.4-41.18,14.01-86.69,16.08-49.22,2.24-63.98,2.71-188.64,2.71s-139.42-.47-188.64-2.71c-45.51-2.08-70.24-9.68-86.68-16.08-21.8-8.47-37.34-18.59-53.68-34.92-16.33-16.34-26.45-31.89-34.92-53.68-6.39-16.45-13.99-41.16-16.08-86.68-2.24-49.22-2.71-63.98-2.71-188.64s.47-139.41,2.71-188.64c2.09-45.52,9.69-70.23,16.08-86.69,8.47-21.79,18.59-37.33,34.92-53.67,16.34-16.34,31.89-26.45,53.68-34.92,16.44-6.4,41.17-14.01,86.68-16.08,49.22-2.25,64-2.72,188.64-2.72M540,73.17c-126.79,0-142.68.54-192.48,2.81-49.69,2.27-83.62,10.17-113.31,21.7-30.71,11.93-56.74,27.89-82.69,53.85-25.95,25.95-41.91,51.99-53.83,82.69-11.54,29.7-19.44,63.63-21.7,113.31-2.28,49.8-2.81,65.69-2.81,192.48s.53,142.68,2.81,192.48c2.26,49.69,10.16,83.62,21.7,113.31,11.92,30.69,27.88,56.74,53.83,82.69,25.96,25.96,51.99,41.92,82.69,53.85,29.7,11.53,63.63,19.43,113.31,21.7,49.8,2.27,65.69,2.8,192.48,2.8s142.68-.53,192.47-2.8c49.69-2.27,83.62-10.16,113.32-21.7,30.7-11.93,56.74-27.89,82.69-53.85,25.96-25.95,41.92-51.99,53.85-82.69,11.53-29.7,19.43-63.63,21.7-113.31,2.27-49.8,2.8-65.69,2.8-192.48s-.54-142.68-2.8-192.48c-2.27-49.69-10.17-83.62-21.7-113.31-11.93-30.69-27.89-56.74-53.85-82.69-25.95-25.96-51.99-41.92-82.69-53.85-29.7-11.53-63.63-19.43-113.32-21.7-49.8-2.27-65.69-2.81-192.47-2.81"/>
  <path class="st0" d="M540,300.28c-132.39,0-239.73,107.33-239.73,239.72s107.34,239.73,239.73,239.73,239.72-107.33,239.72-239.73-107.33-239.72-239.72-239.72M540,695.61c-85.95,0-155.61-69.68-155.61-155.61s69.67-155.61,155.61-155.61,155.61,69.67,155.61,155.61-69.66,155.61-155.61,155.61"/>
  <path class="st0" d="M845.22,290.8c0,30.94-25.08,56.03-56.02,56.03s-56.03-25.09-56.03-56.03,25.08-56.02,56.03-56.02,56.02,25.08,56.02,56.02"/>
</svg>