<?xml version="1.0" encoding="UTF-8"?>
<svg id="Capa_1" xmlns="http://www.w3.org/2000/svg" version="1.1" viewBox="0 0 1080 1080">
  <!-- Generator: Adobe Illustrator 29.3.1, SVG Export Plug-In . SVG Version: 2.1.0 Build 151)  -->
  <defs>
    <style>
      .st0 {
        fill: #ededed;
      }
    </style>
  </defs>
  <path class="st0" d="M149.66,207.07c-56.65,0-103.32,46.68-103.32,103.32v459.22c0,56.64,46.68,103.32,103.32,103.32h780.68c56.65,0,103.32-46.68,103.32-103.32v-459.22c0-56.64-46.68-103.32-103.32-103.32H149.66ZM158.27,275.96h763.45l-359.14,312.84c-13.93,12.12-30.52,12.13-44.48,0L158.27,275.96ZM115.22,329.77l243.59,211.67-243.59,227.46v-439.13ZM964.78,330.12v439.13l-242.9-227.81,242.9-211.32ZM669.52,586.63l231.41,217.41H178.75l232.48-217.06,61.71,53.45c38.4,33.36,96.5,33.41,134.9,0l61.71-53.81h-.03Z"/>
</svg>