<?xml version="1.0" encoding="UTF-8"?>
<svg id="Capa_1" xmlns="http://www.w3.org/2000/svg" version="1.1" viewBox="0 0 1080 1080">
  <!-- Generator: Adobe Illustrator 29.3.1, SVG Export Plug-In . SVG Version: 2.1.0 Build 151)  -->
  <defs>
    <style>
      .st0 {
        fill: #fff;
      }

      .st1 {
        fill: #129e38;
      }
    </style>
  </defs>
  <path class="st1" d="M540,984.73c-245.23,0-444.73-199.51-444.73-444.73S294.77,95.27,540,95.27s444.73,199.5,444.73,444.73-199.51,444.73-444.73,444.73Z"/>
  <path class="st0" d="M540,907.97c-202.9,0-367.97-165.07-367.97-367.98s165.07-367.97,367.97-367.97,367.98,165.07,367.98,367.97-165.07,367.98-367.98,367.98Z"/>
  <circle class="st1" cx="540" cy="540" r="291.22"/>
  <path class="st0" d="M405,369.88s9.97-6.32,15.16-6.32h29.06s7.79,1.36,11.37,9.48c3.58,8.12,28.08,65.69,29.9,70.13,1.82,4.44,6.58,15.43-1.05,25.27-7.63,9.84-23.59,28.22-23.59,28.22,0,0-6.32,5.69-.84,14.74,5.47,9.06,24.73,38.93,49.91,61.5,25.18,22.57,56.02,39.17,71.39,44.22,15.37,5.05,18.74-1.68,24.64-9.27,5.9-7.58,24.22-30.75,24.22-30.75,0,0,6.32-9.27,18.74-3.58,12.43,5.68,72.86,34.96,72.86,34.96,0,0,7.37,1.27,7.79,9.48.42,8.21,5.48,32.79-16.42,56.43-21.91,23.65-68.49,34.59-90.55,28.42-22.06-6.17-94.99-25.25-142.55-69.6-47.56-44.36-86.08-91.04-101.84-125.48-15.76-34.43-14.88-54.86-14.01-64.49.88-9.63,5.94-54.25,35.8-73.38Z"/>
</svg>