<?xml version="1.0" encoding="UTF-8"?>
<svg id="Capa_1" xmlns="http://www.w3.org/2000/svg" version="1.1" viewBox="0 0 1080 1080">
  <!-- Generator: Adobe Illustrator 29.3.1, SVG Export Plug-In . SVG Version: 2.1.0 Build 151)  -->
  <defs>
    <style>
      .st0 {
        fill: #ededed;
        fill-rule: evenodd;
      }
    </style>
  </defs>
  <path class="st0" d="M996.87,516.88c-6.09-240.78-204.43-434.06-448.56-434.06S110.45,271.7,99.95,508.7c-.21,6.5-.42,13.02-.42,19.53,0,84.25,23.52,162.83,64.29,230.06l-80.89,238.89,248.55-79.01c64.29,35.3,138.24,55.47,216.83,55.47,247.92,0,448.77-199.39,448.77-445.42,0-3.78,0-7.56-.21-11.34ZM548.3,902.62c-76.68,0-147.91-22.69-207.58-61.98l-144.97,46.22,47.06-139.09c-45.17-61.77-71.85-137.6-71.85-219.55,0-12.19.64-24.37,1.89-36.34,18.49-189.52,179.85-338.06,375.45-338.06s360.95,152.32,376.07,345.19c.85,9.68,1.27,19.33,1.27,29.21,0,206.53-169.34,374.4-377.34,374.4Z"/>
  <path class="st0" d="M754,618.15c-11.14-5.45-65.14-31.94-75.22-35.5-10.09-3.78-17.44-5.46-24.8,5.46-7.35,10.92-28.57,35.5-34.88,42.65-6.51,7.35-12.81,8.19-23.94,2.73-10.93-5.46-46.43-16.8-88.45-54.21-32.57-28.78-54.84-64.49-61.15-75.42-6.3-10.93-.63-16.81,4.84-22.27,5.04-5.04,10.93-12.82,16.59-19.11,1.48-1.9,2.73-3.58,3.99-5.26,2.52-3.99,4.41-7.78,6.93-13.03,3.78-7.34,1.9-13.65-.83-19.12-2.73-5.46-24.8-59.25-34.04-81.1-9.03-21.84-18.27-18.07-24.79-18.07s-13.66-1.04-21.01-1.04-19.33,2.73-29.42,13.65c-10.08,10.93-38.44,37.4-38.44,91.19,0,12.61,2.32,25.21,5.67,37.19,11.14,38.44,35.09,70.16,39.29,75.64,5.45,7.14,76.06,121.01,187.82,164.93,111.98,43.49,111.98,28.99,132.15,27.1,20.16-1.69,65.14-26.26,74.15-51.9,9.26-25.42,9.26-47.28,6.52-51.9-2.73-4.41-10.09-7.14-21-12.61Z"/>
</svg>