<?xml version="1.0" encoding="UTF-8"?>
<svg id="Capa_1" xmlns="http://www.w3.org/2000/svg" version="1.1" viewBox="0 0 1080 1080">
  <!-- Generator: Adobe Illustrator 29.3.1, SVG Export Plug-In . SVG Version: 2.1.0 Build 151)  -->
  <defs>
    <style>
      .st0 {
        fill: #ededed;
      }
    </style>
  </defs>
  <path class="st0" d="M540,68.29c-260.18,0-471.71,211.52-471.71,471.71s211.52,471.71,471.71,471.71,471.71-211.52,471.71-471.71S800.18,68.29,540,68.29ZM540,274.85c64.55,0,117.18,52.63,117.18,117.18s-52.63,117.18-117.18,117.18-117.18-52.63-117.18-117.18,52.63-117.18,117.18-117.18ZM732.66,754.5c0,10.92-8.94,20.85-20.85,20.85h-343.6c-10.92,0-20.85-8.94-20.85-20.85v-13.9c0-106.26,86.4-192.66,192.66-192.66h0c106.26,0,192.66,86.4,192.66,192.66v13.9Z"/>
</svg>