<?xml version="1.0" encoding="UTF-8"?>
<svg id="Capa_1" xmlns="http://www.w3.org/2000/svg" version="1.1" viewBox="0 0 1920 1080">
  <!-- Generator: Adobe Illustrator 29.3.1, SVG Export Plug-In . SVG Version: 2.1.0 Build 151)  -->
  <defs>
    <style>
      .st0 {
        fill: #502a7c;
      }
    </style>
  </defs>
  <path class="st0" d="M288.44,327.65c11.14,0,27.04.8,35.53,2.39v129.52h-44.28c-65.78,0-100.51,37.83-100.51,109.96v179.63H34.63v-418.3h144.67v80.44c14.32-58.34,49.72-83.64,109.13-83.64Z"/>
  <path class="st0" d="M774.45,749.15h-143.56c-5.84-12.73-15.03-32.27-16.09-47.66-28.12,34.48-71.51,52.61-130.38,52.61-45.09,0-79.7-11.4-107.54-34.21-27.85-22.8-43.62-54.1-43.62-93.88s12.99-68.55,38.99-89.51c25.98-20.95,69.48-33.81,126.77-38.59l66.04-5.57c17.5-1.59,30.1-5.04,37.79-10.34,7.68-5.3,11.54-13.25,11.54-23.87,0-21.74-17.24-32.62-51.72-32.62-21.22,0-36.2,3.06-44.95,9.15-8.75,6.1-13.4,7.93-15.52,24.9h-144.8c3.7-48.79,21.61-75.42,55.3-99.29,33.68-23.87,78.31-37.66,145.67-37.66,128.89,0,193.34,42.96,193.34,128.89v217.2c0,34.48,11.62,65.6,22.76,80.44ZM536.39,660.22c51.98,0,77.17-20.5,77.17-71.95v-32.18c-5.84,7.96-17.24,16.35-35.8,19l-46.94,4.77c-31.3,3.18-46.94,16.71-46.94,40.58,0,12.21,4.64,21.88,13.92,29.04,9.27,7.16,22.14,10.74,38.59,10.74Z"/>
  <path class="st0" d="M953.02,523.91c0-34.83,29.23-64.35,64.05-64.35s63.06,29.53,63.06,64.35v225.24h144.8v-265.74c0-49.33-13-87.38-38.99-114.17-25.99-26.78-60.21-40.18-102.63-40.18-50.4,0-97.41,10.27-130.29,50.05v-209.15h-146.39v579.19h146.39v-225.24Z"/>
  <path class="st0" d="M1710.33,324.47c54.1,0,96.79,19.37,128.09,58.08,31.29,38.72,46.94,90.97,46.94,156.74s-15.65,118.02-46.94,156.74c-31.3,38.72-73.99,58.08-128.09,58.08-49.33,0-87.26-18.03-113.77-54.1v210.04h-146.39V330.85h144.8v54.08c25.98-40.3,62.85-60.47,115.36-60.47ZM1667.76,439.75c-47.74,0-72.8,32.7-72.8,99.53s25.06,100.96,72.8,100.96,71.61-34.47,71.61-103.43c0-64.71-23.87-97.07-71.61-97.07Z"/>
  <path class="st0" d="M1393.85,749.15h-112.62l-24.13-418.3h160.88l-24.13,418.3Z"/>
</svg>